<svg width="1440" height="381" viewBox="0 0 1440 381" fill="none" xmlns="http://www.w3.org/2000/svg">
<g opacity="0.05">
<path d="M138.653 29.7809C67.016 27.6403 61.176 -46.5024 59.6186 -63.0434C59.2293 -67.13 58.6453 -71.022 57.8667 -75.1086C57.088 -79.1952 55.92 -83.8656 54.752 -86.9792C45.408 -111.693 21.0747 -129.402 -7.15201 -129.402C-34.6 -129.402 -58.1547 -112.861 -68.2773 -89.1198C-59.128 -93.7902 -48.8107 -96.32 -37.9093 -96.32C-16.6907 -96.32 2.19199 -86.59 14.2613 -71.022C14.2613 -71.022 -21.752 -88.9252 -43.1653 -78.6114C-43.36 -78.4168 -17.2747 -71.8004 -6.17868 -44.751C4.72266 -18.0908 -10.072 -3.88496 -10.072 -3.88496C3.35999 21.6077 40.736 39.9001 84.7307 39.9001C106.728 39.9001 122.301 37.3703 138.653 29.7809C135.733 30.7539 138.653 29.7809 138.653 29.7809Z" fill="url(#paint0_linear)"/>
<path d="M-13.9653 21.6077C-13.9653 21.6077 2.19206 35.0351 25.3574 46.1273C41.5147 53.7167 82.2001 69.4793 57.6721 125.524C57.6721 125.524 47.3547 97.3071 13.2881 79.2093C-22.5306 60.1385 -13.9653 21.6077 -13.9653 21.6077Z" fill="url(#paint1_linear)"/>
<path d="M142.741 -26.4585C136.317 -27.8207 131.645 -28.0153 128.141 -27.2369C129.115 -31.9073 130.477 -36.9669 132.619 -42.0265C148.971 -81.5303 118.797 -101.185 118.797 -101.185C118.797 -101.185 115.877 -87.9521 106.339 -70.6327C89.5972 -40.4697 85.5092 -0.576729 132.619 17.1319C127.168 -16.5339 142.741 -26.4585 142.741 -26.4585Z" fill="url(#paint2_linear)"/>
<path d="M72.856 54.3004C72.856 54.3004 89.208 80.3768 78.112 122.41C78.112 122.41 101.472 129.416 106.144 103.145C106.144 103.145 117.435 120.854 133.008 110.734C149.36 100.031 131.645 70.2576 131.645 70.2576C131.645 70.2576 160.845 55.8572 147.413 39.1216C147.803 38.927 117.24 57.9978 72.856 54.3004Z" fill="url(#paint3_linear)"/>
<path d="M176.613 -138.937C176.613 -138.937 209.707 -131.153 222.165 -85.0332C236.376 -32.4912 213.211 57.9978 176.613 71.2307C176.613 71.2307 260.515 66.5602 286.6 -4.46877L266.355 -10.1122C266.355 -10.1122 335.072 -90.482 276.477 -139.132C225.669 -180.971 176.613 -138.937 176.613 -138.937Z" fill="url(#paint4_linear)"/>
<path d="M176.224 39.9001C176.224 39.9001 176.224 13.0453 152.28 7.98566C152.28 7.98566 157.731 -13.8096 180.312 -3.88496C180.312 -3.88496 177.781 -28.5992 199.779 -29.5722C221.776 -30.5452 203.283 27.6403 176.224 39.9001Z" fill="url(#paint5_linear)"/>
<path d="M162.597 94.1934C162.597 94.1934 301.2 86.0202 323.392 207.84C345.584 329.659 429.485 270.89 429.485 270.89C429.485 270.89 375.757 356.514 307.429 294.048C246.888 238.587 293.413 142.26 162.597 94.1934Z" fill="url(#paint6_linear)"/>
<path d="M118.408 130.778C118.408 130.778 168.048 236.641 85.7041 263.885C85.7041 264.079 136.901 194.218 118.408 130.778Z" fill="url(#paint7_linear)"/>
<path d="M133.203 133.892C133.203 133.892 168.827 188.769 152.28 231.776C152.28 231.97 202.699 190.326 133.203 133.892Z" fill="url(#paint8_linear)"/>
<path d="M152.28 125.524C152.28 125.524 199.195 144.984 199.195 187.212C199.195 187.212 220.024 128.638 152.28 125.524Z" fill="url(#paint9_linear)"/>
<path d="M220.024 83.4904C220.024 83.4904 300.032 59.5546 314.243 -0.382202C314.243 -0.382202 341.885 9.73699 332.541 40.2892C332.541 40.2892 365.051 37.3702 367.192 68.117C369.528 102.95 327.675 98.4746 327.675 98.4746C327.675 98.4746 345.973 127.859 324.755 147.514C324.755 147.514 300.032 85.2418 220.024 83.4904Z" fill="url(#paint10_linear)"/>
<path d="M351.229 5.26123C351.229 5.26123 385.88 5.65043 409.435 -7.77697C409.24 -7.97157 396.197 33.8674 351.229 5.26123Z" fill="url(#paint11_linear)"/>
<path d="M337.992 166.001C337.992 166.001 325.144 252.598 385.491 262.717C432.016 270.501 464.525 214.651 429.485 187.212C397.949 162.303 368.944 194.412 380.235 218.543C380.235 218.543 359.989 232.165 337.992 166.001Z" fill="url(#paint12_linear)"/>
<path d="M228.2 178.066C228.2 178.066 191.213 289.183 85.7041 291.129C85.7041 291.129 92.1281 337.054 157.536 316.816C157.536 316.816 138.069 335.692 162.597 345.033C186.931 354.568 197.443 291.907 194.523 284.318C194.523 284.318 190.435 371.498 255.259 381.034L251.56 351.065C251.56 351.065 287.573 403.218 316.579 368.774C340.133 340.946 285.432 341.141 255.259 276.923C234.04 231.97 228.2 178.066 228.2 178.066Z" fill="url(#paint13_linear)"/>
<path d="M100.888 147.514C100.888 147.514 99.1362 227.105 45.9922 225.938C-7.15185 224.77 8.22682 153.741 45.9922 166.001C45.9922 166.001 64.0962 171.644 64.6802 186.628C64.6802 186.823 83.9522 191.883 100.888 147.514Z" fill="url(#paint14_linear)"/>
<path d="M344.221 115.016C344.221 115.016 358.237 137.784 365.829 180.401C365.829 180.401 391.915 120.27 344.221 115.016Z" fill="url(#paint15_linear)"/>
<path d="M367.387 106.453C367.387 106.453 389.384 115.016 386.464 166.001C386.464 166.001 420.141 108.983 367.387 106.453Z" fill="url(#paint16_linear)"/>
<path d="M192.965 332.773C192.965 332.773 179.339 406.721 223.723 416.84C223.723 416.84 206.397 394.461 230.536 391.542C230.536 391.542 193.744 374.807 192.965 332.773Z" fill="url(#paint17_linear)"/>
<path d="M713.504 266.414C785.141 268.555 790.981 342.698 792.539 359.239C792.928 363.325 793.512 367.217 794.291 371.304C795.069 375.39 796.237 380.061 797.405 383.174C807.139 408.083 831.277 425.597 859.504 425.597C886.952 425.597 910.507 409.056 920.629 385.315C911.48 389.985 901.163 392.515 890.261 392.515C869.043 392.515 850.16 382.591 837.896 367.217C837.896 367.217 873.909 385.12 895.323 374.807C895.517 374.612 869.432 367.996 858.336 340.946C847.435 314.286 862.229 300.08 862.229 300.08C848.797 274.588 811.421 256.295 767.427 256.295C745.624 256.101 730.051 258.63 713.504 266.414C716.424 265.441 713.504 266.414 713.504 266.414Z" fill="url(#paint18_linear)"/>
<path d="M902.915 362.547C902.915 362.547 896.685 351.455 907.003 332.578C917.32 313.897 941.848 273.809 878.387 237.224C878.387 237.224 893.181 265.636 878.387 301.442C860.672 344.449 902.915 362.547 902.915 362.547Z" fill="url(#paint19_linear)"/>
<path d="M866.317 274.393C866.317 274.393 850.16 260.966 826.995 249.873C810.837 242.284 770.152 226.521 794.68 170.477C794.68 170.477 804.997 198.694 839.064 216.791C874.688 235.862 866.317 274.393 866.317 274.393Z" fill="url(#paint20_linear)"/>
<path d="M709.611 322.459C716.035 323.821 720.707 324.016 724.211 323.238C723.237 327.908 721.875 332.968 719.733 338.027C703.381 377.531 733.555 397.186 733.555 397.186C733.555 397.186 736.475 383.953 746.013 366.633C762.755 336.47 766.843 296.577 719.733 278.869C724.989 312.535 709.611 322.459 709.611 322.459Z" fill="url(#paint21_linear)"/>
<path d="M779.301 241.895C779.301 241.895 762.949 215.818 774.045 173.785C774.045 173.785 750.685 166.779 746.013 193.05C746.013 193.05 734.723 175.342 719.149 185.461C702.797 196.164 720.512 225.938 720.512 225.938C720.512 225.938 691.312 240.338 704.744 257.074C704.549 257.268 735.112 238.197 779.301 241.895Z" fill="url(#paint22_linear)"/>
<path d="M752.243 417.424L759.445 407.889C759.445 407.889 751.464 456.733 813.173 474.831C834.781 481.253 848.603 491.372 848.603 491.372C848.603 491.372 871.768 447.587 820.376 430.268L815.315 428.322C803.245 422.873 774.045 403.802 773.851 345.033C774.045 345.033 737.837 396.407 752.243 417.424Z" fill="url(#paint23_linear)"/>
<path d="M675.739 434.938C675.739 434.938 642.645 427.154 630.187 381.034C615.976 328.492 639.141 238.003 675.739 224.77C675.739 224.77 591.837 229.44 565.752 300.469L585.997 306.113C585.997 306.113 517.28 386.483 575.875 435.133C626.683 477.166 675.739 434.938 675.739 434.938Z" fill="url(#paint24_linear)"/>
<path d="M675.933 256.101C675.933 256.101 675.933 282.956 699.877 288.015C699.877 288.015 694.427 309.81 671.845 299.886C671.845 299.886 674.376 324.6 652.379 325.573C630.381 326.546 648.875 268.361 675.933 256.101Z" fill="url(#paint25_linear)"/>
<path d="M694.816 335.108C694.816 335.108 664.448 396.602 710.195 407.694C710.195 407.694 697.347 417.229 680.995 415.283C665.616 413.337 654.909 401.467 653.547 388.234C648.875 347.173 694.816 335.108 694.816 335.108Z" fill="url(#paint26_linear)"/>
<path d="M644.981 341.919C644.981 341.919 662.891 347.563 689.755 338.027C689.755 338.222 662.696 377.336 644.981 341.919Z" fill="url(#paint27_linear)"/>
<path d="M689.755 201.807C689.755 201.807 551.152 209.98 528.96 88.1608C506.768 -33.6588 422.867 25.1104 422.867 25.1104C422.867 25.1104 476.595 -60.5136 544.923 1.95302C605.464 57.414 558.744 153.741 689.755 201.807Z" fill="url(#paint28_linear)"/>
<path d="M733.944 165.222C733.944 165.222 684.304 59.36 766.648 32.116C766.648 32.116 715.256 101.783 733.944 165.222Z" fill="url(#paint29_linear)"/>
<path d="M719.149 162.109C719.149 162.109 683.525 107.232 700.072 64.225C700.072 64.225 649.653 105.675 719.149 162.109Z" fill="url(#paint30_linear)"/>
<path d="M700.072 170.671C700.072 170.671 653.157 151.211 653.157 108.983C652.963 108.788 632.328 167.363 700.072 170.671Z" fill="url(#paint31_linear)"/>
<path d="M632.133 212.705C632.133 212.705 552.125 236.641 537.915 296.577C537.915 296.577 510.272 286.458 519.616 255.906C519.616 255.906 487.107 258.825 484.965 228.078C482.629 193.245 524.483 197.721 524.483 197.721C524.483 197.721 506.184 168.336 527.403 148.681C527.403 148.487 552.32 210.759 632.133 212.705Z" fill="url(#paint32_linear)"/>
<path d="M530.517 319.346C532.269 317.984 503.264 374.417 525.651 422.484C525.651 422.289 467.251 367.996 530.517 319.346Z" fill="url(#paint33_linear)"/>
<path d="M514.36 303.972C514.36 303.972 481.851 322.07 464.525 370.72C464.331 370.72 444.085 310.005 514.36 303.972Z" fill="url(#paint34_linear)"/>
<path d="M501.123 290.934C501.123 290.934 466.472 290.545 442.917 303.972C442.917 303.972 456.155 262.328 501.123 290.934Z" fill="url(#paint35_linear)"/>
<path d="M514.36 130C514.36 130 527.208 43.4028 466.861 33.2836C420.336 25.4996 387.827 81.3498 422.867 108.788C454.403 133.697 483.408 101.588 472.117 77.4578C471.923 77.6524 492.168 64.0304 514.36 130Z" fill="url(#paint36_linear)"/>
<path d="M624.152 117.935C624.152 117.935 661.139 6.81806 766.648 4.87206C766.648 4.87206 760.224 -41.0535 694.816 -20.8151C694.816 -20.8151 714.283 -39.6913 689.755 -49.0321C665.421 -58.5675 654.909 4.09366 657.829 11.6831C657.829 11.6831 661.917 -75.4977 597.093 -85.0331L600.792 -55.0648C600.792 -55.0648 564.779 -107.218 535.773 -72.7733C512.219 -44.9455 566.92 -45.1401 597.093 19.0779C618.312 64.2251 624.152 117.935 624.152 117.935Z" fill="url(#paint37_linear)"/>
<path d="M751.269 148.487C751.269 148.487 753.021 68.8954 806.165 70.063C859.309 71.2306 843.931 142.26 806.165 130C806.165 130 788.061 124.356 787.477 109.372C787.477 109.372 768.205 104.118 751.269 148.487Z" fill="url(#paint38_linear)"/>
<path d="M508.131 180.985C508.131 180.985 494.115 158.217 486.523 115.599C486.328 115.599 460.243 175.925 508.131 180.985Z" fill="url(#paint39_linear)"/>
<path d="M484.965 189.547C484.965 189.547 462.968 180.985 465.888 130C465.888 130 432.016 187.018 484.965 189.547Z" fill="url(#paint40_linear)"/>
<path d="M989.736 -0.382202C918.099 -2.5228 912.259 -76.6654 910.701 -93.2064C910.312 -97.293 909.728 -101.185 908.949 -105.272C908.171 -109.358 907.003 -114.029 905.835 -117.142C896.101 -142.051 871.963 -159.565 843.736 -159.565C816.288 -159.565 792.733 -143.024 782.611 -119.283C791.76 -123.953 802.077 -126.483 812.979 -126.483C834.197 -126.483 853.08 -116.558 865.344 -101.185C865.344 -101.185 829.331 -119.088 807.917 -108.774C807.723 -108.58 833.808 -101.963 844.904 -74.914C855.805 -48.2538 841.011 -34.048 841.011 -34.048C854.443 -8.5554 891.819 9.737 935.813 9.737C957.616 9.737 973.189 7.40179 989.736 -0.382202C986.621 0.590805 989.736 -0.382202 989.736 -0.382202Z" fill="url(#paint41_linear)"/>
<path d="M800.325 -96.5145C800.325 -96.5145 806.555 -85.4223 796.237 -66.5461C785.92 -47.8645 761.392 -7.77693 824.853 28.8079C824.853 28.8079 810.059 0.396263 824.853 -35.4101C842.568 -78.4167 800.325 -96.5145 800.325 -96.5145Z" fill="url(#paint42_linear)"/>
<path d="M836.923 -8.36078C836.923 -8.36078 853.08 5.06664 876.245 16.1588C892.403 23.7482 933.088 39.5109 908.56 95.5557C908.56 95.5557 898.243 67.3387 864.176 49.2408C828.357 29.9754 836.923 -8.36078 836.923 -8.36078Z" fill="url(#paint43_linear)"/>
<path d="M923.744 24.1374C923.744 24.1374 940.096 50.2138 929 92.2474C929 92.2474 952.36 99.253 957.032 72.982C957.032 72.982 968.323 90.6906 983.896 80.5714C1000.25 69.8684 982.533 40.0946 982.533 40.0946C982.533 40.0946 1011.73 25.6942 998.301 8.95863C998.691 8.76403 968.128 27.8348 923.744 24.1374Z" fill="url(#paint44_linear)"/>
<path d="M1027.5 -169.1C1027.5 -169.1 1060.59 -161.316 1073.05 -115.196C1087.26 -62.6541 1064.1 27.8349 1027.5 41.0677C1027.5 41.0677 1111.4 36.3973 1137.49 -34.6317L1117.24 -40.2751C1117.24 -40.2751 1185.96 -120.645 1127.37 -169.295C1076.56 -211.134 1027.5 -169.1 1027.5 -169.1Z" fill="url(#paint45_linear)"/>
<path d="M1027.31 9.73701C1027.31 9.73701 1027.31 -17.1178 1003.36 -22.1774C1003.36 -22.1774 1008.81 -43.9726 1031.39 -34.048C1031.39 -34.048 1028.86 -58.7622 1050.86 -59.7352C1072.86 -60.5136 1054.17 -2.32819 1027.31 9.73701Z" fill="url(#paint46_linear)"/>
<path d="M1013.49 64.225C1013.49 64.225 1152.09 56.0518 1174.28 177.871C1196.47 299.691 1280.37 240.922 1280.37 240.922C1280.37 240.922 1226.65 326.546 1158.32 264.079C1097.78 208.424 1144.3 112.291 1013.49 64.225Z" fill="url(#paint47_linear)"/>
<path d="M969.296 100.615C969.296 100.615 1018.94 206.478 936.592 233.722C936.592 233.916 987.789 164.249 969.296 100.615Z" fill="url(#paint48_linear)"/>
<path d="M984.091 103.923C984.091 103.923 1019.71 158.801 1003.17 201.807C1003.17 201.807 1053.59 160.163 984.091 103.923Z" fill="url(#paint49_linear)"/>
<path d="M1003.17 95.361C1003.17 95.361 1050.08 114.821 1050.08 157.049C1050.08 157.049 1070.91 98.4746 1003.17 95.361Z" fill="url(#paint50_linear)"/>
<path d="M1070.91 53.3274C1070.91 53.3274 1150.92 29.3916 1165.13 -30.5452C1165.13 -30.5452 1192.77 -20.426 1183.43 10.1262C1183.43 10.1262 1215.94 7.20723 1218.08 37.954C1220.42 72.7874 1178.56 68.3116 1178.56 68.3116C1178.56 68.3116 1196.86 97.6962 1175.64 117.351C1175.64 117.351 1150.92 55.2734 1070.91 53.3274Z" fill="url(#paint51_linear)"/>
<path d="M1202.12 -24.9018C1202.12 -24.9018 1236.77 -24.5126 1260.32 -37.94C1260.32 -37.94 1247.09 3.70441 1202.12 -24.9018Z" fill="url(#paint52_linear)"/>
<path d="M1188.88 136.032C1188.88 136.032 1176.03 222.629 1236.38 232.749C1282.9 240.533 1315.41 184.682 1280.37 157.244C1248.84 132.335 1219.83 164.444 1231.12 188.574C1231.12 188.38 1210.88 202.002 1188.88 136.032Z" fill="url(#paint53_linear)"/>
<path d="M1079.09 148.098C1079.09 148.098 1042.1 259.214 936.592 261.16C936.592 261.16 943.016 307.086 1008.42 286.847C1008.42 286.847 988.957 305.724 1013.49 315.064C1037.82 324.6 1048.33 261.939 1045.41 254.349C1045.41 254.349 1041.32 341.53 1106.15 351.065L1102.45 321.097C1102.45 321.097 1138.46 373.25 1167.47 338.806C1191.02 310.978 1136.32 311.172 1106.15 246.954C1084.93 201.807 1079.09 148.098 1079.09 148.098Z" fill="url(#paint54_linear)"/>
<path d="M951.971 117.351C951.971 117.351 950.219 196.942 897.075 195.775C843.931 194.607 859.309 123.578 897.075 135.838C897.075 135.838 915.179 141.481 915.763 156.465C915.568 156.66 935.035 161.914 951.971 117.351Z" fill="url(#paint55_linear)"/>
<path d="M1195.11 84.8527C1195.11 84.8527 1209.13 107.621 1216.72 150.238C1216.72 150.433 1243 90.1069 1195.11 84.8527Z" fill="url(#paint56_linear)"/>
<path d="M1218.27 76.4848C1218.27 76.4848 1240.27 85.0472 1237.35 136.032C1237.35 136.032 1271.22 79.0146 1218.27 76.4848Z" fill="url(#paint57_linear)"/>
<path d="M1044.05 302.61C1044.05 302.61 1030.42 376.558 1074.81 386.677C1074.81 386.677 1057.48 364.298 1081.62 361.379C1081.42 361.379 1044.83 344.644 1044.05 302.61Z" fill="url(#paint58_linear)"/>
<path d="M1526.63 404.97C1526.63 404.97 1493.53 397.186 1481.07 351.066C1466.86 298.524 1490.03 208.035 1526.63 194.802C1526.63 194.802 1442.73 199.472 1416.64 270.501L1436.89 276.145C1436.89 276.145 1368.17 356.514 1426.76 405.164C1477.57 447.003 1526.63 404.97 1526.63 404.97Z" fill="url(#paint59_linear)"/>
<path d="M1540.64 171.644C1540.64 171.644 1402.04 179.817 1379.85 57.9979C1357.66 -63.8217 1273.75 -5.05255 1273.75 -5.05255C1273.75 -5.05255 1327.48 -90.6765 1395.81 -28.2099C1456.35 27.4456 1409.63 123.578 1540.64 171.644Z" fill="url(#paint60_linear)"/>
<path d="M1483.02 182.542C1483.02 182.542 1403.01 206.478 1388.8 266.414C1388.8 266.414 1361.16 256.295 1370.5 225.743C1370.5 225.743 1337.99 228.662 1335.85 197.915C1333.52 163.082 1375.37 167.558 1375.37 167.558C1375.37 167.558 1357.07 138.173 1378.29 118.518C1378.49 118.518 1403.21 180.596 1483.02 182.542Z" fill="url(#paint61_linear)"/>
<path d="M1381.41 289.183C1383.16 287.82 1354.15 344.254 1376.54 392.321C1376.54 392.126 1318.14 337.833 1381.41 289.183Z" fill="url(#paint62_linear)"/>
<path d="M1365.25 273.809C1365.25 273.809 1332.74 291.907 1315.41 340.557C1315.22 340.752 1294.97 279.842 1365.25 273.809Z" fill="url(#paint63_linear)"/>
<path d="M1352.01 260.771C1352.01 260.771 1317.36 260.382 1293.81 273.809C1293.81 273.809 1307.04 232.165 1352.01 260.771Z" fill="url(#paint64_linear)"/>
<path d="M1365.25 99.8368C1365.25 99.8368 1378.1 13.2398 1317.75 3.12063C1271.22 -4.66337 1238.71 51.1868 1273.75 78.6254C1305.29 103.534 1334.3 71.4252 1323.01 47.2948C1323.01 47.4894 1343.06 33.8674 1365.25 99.8368Z" fill="url(#paint65_linear)"/>
<path d="M1475.04 87.7717C1475.04 87.7717 1512.03 -23.345 1617.54 -25.291C1617.54 -25.291 1611.11 -71.2166 1545.7 -50.9782C1545.7 -50.9782 1565.17 -69.8544 1540.64 -79.1952C1516.31 -88.7306 1505.8 -26.0694 1508.72 -18.48C1508.72 -18.48 1512.81 -105.661 1447.98 -115.196L1451.68 -85.2278C1451.68 -85.2278 1415.67 -137.381 1386.66 -102.936C1363.11 -75.1086 1417.81 -75.3032 1447.98 -11.0852C1469.2 34.062 1475.04 87.7717 1475.04 87.7717Z" fill="url(#paint66_linear)"/>
<path d="M1359.02 151.017C1359.02 151.017 1345 128.248 1337.41 85.631C1337.41 85.4364 1311.13 145.762 1359.02 151.017Z" fill="url(#paint67_linear)"/>
<path d="M1335.85 159.384C1335.85 159.384 1313.86 150.822 1316.78 99.8369C1316.78 99.8369 1282.9 156.855 1335.85 159.384Z" fill="url(#paint68_linear)"/>
<path d="M1120.75 457.706C1120.75 457.706 1134.37 383.758 1089.99 373.639C1089.99 373.639 1107.31 396.018 1083.18 398.937C1083.18 399.132 1119.97 415.867 1120.75 457.706Z" fill="url(#paint69_linear)"/>
<path d="M344.416 470.745C344.416 470.745 431.237 471.717 429.485 554.228C429.485 554.228 509.688 510.443 487.885 432.798L471.923 459.458C471.923 459.458 479.709 409.64 439.024 390.375C398.339 371.109 389.968 421.511 413.133 433.965C413.133 433.965 359.211 408.472 344.416 470.745Z" fill="url(#paint70_linear)"/>
<path d="M388.995 390.569C388.995 390.569 381.403 375.196 360.184 375.196C338.771 375.196 356.875 374.612 356.875 374.612L388.995 390.569Z" fill="url(#paint71_linear)"/>
<path d="M892.597 473.664C892.597 473.664 897.269 444.279 940.68 420.343C984.091 396.407 958.005 357.487 931.141 368.969C931.141 368.969 926.469 331.022 964.04 331.022C1001.61 331.022 995.771 375.391 995.771 375.391C995.771 375.391 1007.26 363.325 1026.53 369.553C1026.53 369.553 1019.33 398.937 984.869 402.44L997.328 409.446C997.328 409.446 985.259 431.046 946.52 438.636C907.781 446.03 895.128 467.631 892.597 473.664Z" fill="url(#paint72_linear)"/>
<path d="M415.08 371.109C426.154 371.109 435.131 362.135 435.131 351.066C435.131 339.996 426.154 331.022 415.08 331.022C404.006 331.022 395.029 339.996 395.029 351.066C395.029 362.135 404.006 371.109 415.08 371.109Z" fill="url(#paint73_linear)"/>
<path d="M1257.4 542.357C1253.9 544.109 1279.79 488.258 1236.38 457.706L1278.62 467.631C1278.62 467.631 1276.09 408.083 1228.2 386.677C1228.2 386.677 1251.37 374.612 1271.61 395.24C1271.61 395.24 1240.27 298.913 1285.05 288.988C1285.05 288.988 1289.33 374.223 1312.69 392.126L1328.65 367.023C1328.65 367.217 1389.19 478.723 1257.4 542.357Z" fill="url(#paint74_linear)"/>
<path d="M1248.45 436.106C1248.45 436.106 1189.85 375.78 1157.93 399.91C1126 424.041 1248.45 436.106 1248.45 436.106Z" fill="url(#paint75_linear)"/>
<path d="M1245.33 359.433C1245.33 359.433 1216.52 311.562 1204.26 319.735C1192.19 327.908 1223.14 356.514 1245.33 359.433Z" fill="url(#paint76_linear)"/>
<path d="M-74.1173 303.972C-75.0906 300.47 -43.7493 239.365 56.3094 264.079L30.6134 292.296C30.6134 292.296 63.7067 372.471 152.28 370.72C152.28 370.72 -32.848 459.847 -74.1173 303.972Z" fill="url(#paint77_linear)"/>
</g>
<defs>
<linearGradient id="paint0_linear" x1="-118.476" y1="-138.668" x2="1551.49" y2="933.469" gradientUnits="userSpaceOnUse">
<stop offset="0.00337891" stop-color="#F0F0F0"/>
<stop offset="0.4924" stop-color="white"/>
<stop offset="0.9998" stop-color="#E3E3E2"/>
</linearGradient>
<linearGradient id="paint1_linear" x1="-173.402" y1="-53.1148" x2="1496.56" y2="1019.02" gradientUnits="userSpaceOnUse">
<stop offset="0.00337891" stop-color="#F0F0F0"/>
<stop offset="0.4924" stop-color="white"/>
<stop offset="0.9998" stop-color="#E3E3E2"/>
</linearGradient>
<linearGradient id="paint2_linear" x1="-91.6878" y1="-180.395" x2="1578.28" y2="891.741" gradientUnits="userSpaceOnUse">
<stop offset="0.00337891" stop-color="#F0F0F0"/>
<stop offset="0.4924" stop-color="white"/>
<stop offset="0.9998" stop-color="#E3E3E2"/>
</linearGradient>
<linearGradient id="paint3_linear" x1="-150.638" y1="-88.5724" x2="1519.33" y2="983.564" gradientUnits="userSpaceOnUse">
<stop offset="0.00337891" stop-color="#F0F0F0"/>
<stop offset="0.4924" stop-color="white"/>
<stop offset="0.9998" stop-color="#E3E3E2"/>
</linearGradient>
<linearGradient id="paint4_linear" x1="-65.3076" y1="-221.483" x2="1604.66" y2="850.656" gradientUnits="userSpaceOnUse">
<stop offset="0.00337891" stop-color="#F0F0F0"/>
<stop offset="0.4924" stop-color="white"/>
<stop offset="0.9998" stop-color="#E3E3E2"/>
</linearGradient>
<linearGradient id="paint5_linear" x1="-93.9998" y1="-176.793" x2="1575.97" y2="895.346" gradientUnits="userSpaceOnUse">
<stop offset="0.00337891" stop-color="#F0F0F0"/>
<stop offset="0.4924" stop-color="white"/>
<stop offset="0.9998" stop-color="#E3E3E2"/>
</linearGradient>
<linearGradient id="paint6_linear" x1="-157.999" y1="-77.1068" x2="1511.97" y2="995.031" gradientUnits="userSpaceOnUse">
<stop offset="0.00337891" stop-color="#F0F0F0"/>
<stop offset="0.4924" stop-color="white"/>
<stop offset="0.9998" stop-color="#E3E3E2"/>
</linearGradient>
<linearGradient id="paint7_linear" x1="-206.972" y1="-0.827085" x2="1463" y2="1071.31" gradientUnits="userSpaceOnUse">
<stop offset="0.00337891" stop-color="#F0F0F0"/>
<stop offset="0.4924" stop-color="white"/>
<stop offset="0.9998" stop-color="#E3E3E2"/>
</linearGradient>
<linearGradient id="paint8_linear" x1="-188.504" y1="-29.5927" x2="1481.46" y2="1042.54" gradientUnits="userSpaceOnUse">
<stop offset="0.00337891" stop-color="#F0F0F0"/>
<stop offset="0.4924" stop-color="white"/>
<stop offset="0.9998" stop-color="#E3E3E2"/>
</linearGradient>
<linearGradient id="paint9_linear" x1="-163.997" y1="-67.7643" x2="1505.97" y2="1004.37" gradientUnits="userSpaceOnUse">
<stop offset="0.00337891" stop-color="#F0F0F0"/>
<stop offset="0.4924" stop-color="white"/>
<stop offset="0.9998" stop-color="#E3E3E2"/>
</linearGradient>
<linearGradient id="paint10_linear" x1="-87.7493" y1="-186.529" x2="1582.21" y2="885.606" gradientUnits="userSpaceOnUse">
<stop offset="0.00337891" stop-color="#F0F0F0"/>
<stop offset="0.4924" stop-color="white"/>
<stop offset="0.9998" stop-color="#E3E3E2"/>
</linearGradient>
<linearGradient id="paint11_linear" x1="-35.4342" y1="-268.018" x2="1634.53" y2="804.121" gradientUnits="userSpaceOnUse">
<stop offset="0.00337891" stop-color="#F0F0F0"/>
<stop offset="0.4924" stop-color="white"/>
<stop offset="0.9998" stop-color="#E3E3E2"/>
</linearGradient>
<linearGradient id="paint12_linear" x1="-131.537" y1="-118.325" x2="1538.43" y2="953.814" gradientUnits="userSpaceOnUse">
<stop offset="0.00337891" stop-color="#F0F0F0"/>
<stop offset="0.4924" stop-color="white"/>
<stop offset="0.9998" stop-color="#E3E3E2"/>
</linearGradient>
<linearGradient id="paint13_linear" x1="-211.005" y1="5.4562" x2="1458.96" y2="1077.59" gradientUnits="userSpaceOnUse">
<stop offset="0.00337891" stop-color="#F0F0F0"/>
<stop offset="0.4924" stop-color="white"/>
<stop offset="0.9998" stop-color="#E3E3E2"/>
</linearGradient>
<linearGradient id="paint14_linear" x1="-212.231" y1="7.36513" x2="1457.74" y2="1079.5" gradientUnits="userSpaceOnUse">
<stop offset="0.00337891" stop-color="#F0F0F0"/>
<stop offset="0.4924" stop-color="white"/>
<stop offset="0.9998" stop-color="#E3E3E2"/>
</linearGradient>
<linearGradient id="paint15_linear" x1="-109.407" y1="-152.797" x2="1560.57" y2="919.344" gradientUnits="userSpaceOnUse">
<stop offset="0.00337891" stop-color="#F0F0F0"/>
<stop offset="0.4924" stop-color="white"/>
<stop offset="0.9998" stop-color="#E3E3E2"/>
</linearGradient>
<linearGradient id="paint16_linear" x1="-97.3167" y1="-171.625" x2="1572.65" y2="900.517" gradientUnits="userSpaceOnUse">
<stop offset="0.00337891" stop-color="#F0F0F0"/>
<stop offset="0.4924" stop-color="white"/>
<stop offset="0.9998" stop-color="#E3E3E2"/>
</linearGradient>
<linearGradient id="paint17_linear" x1="-257.195" y1="77.3993" x2="1412.77" y2="1149.54" gradientUnits="userSpaceOnUse">
<stop offset="0.00337891" stop-color="#F0F0F0"/>
<stop offset="0.4924" stop-color="white"/>
<stop offset="0.9998" stop-color="#E3E3E2"/>
</linearGradient>
<linearGradient id="paint18_linear" x1="-61.4526" y1="-227.489" x2="1608.51" y2="844.648" gradientUnits="userSpaceOnUse">
<stop offset="0.00337891" stop-color="#F0F0F0"/>
<stop offset="0.4924" stop-color="white"/>
<stop offset="0.9998" stop-color="#E3E3E2"/>
</linearGradient>
<linearGradient id="paint19_linear" x1="-23.5975" y1="-286.45" x2="1646.37" y2="785.688" gradientUnits="userSpaceOnUse">
<stop offset="0.00337891" stop-color="#F0F0F0"/>
<stop offset="0.4924" stop-color="white"/>
<stop offset="0.9998" stop-color="#E3E3E2"/>
</linearGradient>
<linearGradient id="paint20_linear" x1="-6.52627" y1="-313.041" x2="1663.44" y2="759.095" gradientUnits="userSpaceOnUse">
<stop offset="0.00337891" stop-color="#F0F0F0"/>
<stop offset="0.4924" stop-color="white"/>
<stop offset="0.9998" stop-color="#E3E3E2"/>
</linearGradient>
<linearGradient id="paint21_linear" x1="-88.2445" y1="-185.765" x2="1581.72" y2="886.37" gradientUnits="userSpaceOnUse">
<stop offset="0.00337891" stop-color="#F0F0F0"/>
<stop offset="0.4924" stop-color="white"/>
<stop offset="0.9998" stop-color="#E3E3E2"/>
</linearGradient>
<linearGradient id="paint22_linear" x1="-29.2912" y1="-277.585" x2="1640.68" y2="794.553" gradientUnits="userSpaceOnUse">
<stop offset="0.00337891" stop-color="#F0F0F0"/>
<stop offset="0.4924" stop-color="white"/>
<stop offset="0.9998" stop-color="#E3E3E2"/>
</linearGradient>
<linearGradient id="paint23_linear" x1="-102.982" y1="-162.802" x2="1566.99" y2="909.338" gradientUnits="userSpaceOnUse">
<stop offset="0.00337891" stop-color="#F0F0F0"/>
<stop offset="0.4924" stop-color="white"/>
<stop offset="0.9998" stop-color="#E3E3E2"/>
</linearGradient>
<linearGradient id="paint24_linear" x1="-114.621" y1="-144.673" x2="1555.35" y2="927.465" gradientUnits="userSpaceOnUse">
<stop offset="0.00337891" stop-color="#F0F0F0"/>
<stop offset="0.4924" stop-color="white"/>
<stop offset="0.9998" stop-color="#E3E3E2"/>
</linearGradient>
<linearGradient id="paint25_linear" x1="-85.9299" y1="-189.364" x2="1584.04" y2="882.774" gradientUnits="userSpaceOnUse">
<stop offset="0.00337891" stop-color="#F0F0F0"/>
<stop offset="0.4924" stop-color="white"/>
<stop offset="0.9998" stop-color="#E3E3E2"/>
</linearGradient>
<linearGradient id="paint26_linear" x1="-117.773" y1="-139.756" x2="1552.19" y2="932.38" gradientUnits="userSpaceOnUse">
<stop offset="0.00337891" stop-color="#F0F0F0"/>
<stop offset="0.4924" stop-color="white"/>
<stop offset="0.9998" stop-color="#E3E3E2"/>
</linearGradient>
<linearGradient id="paint27_linear" x1="-108.258" y1="-154.579" x2="1561.71" y2="917.561" gradientUnits="userSpaceOnUse">
<stop offset="0.00337891" stop-color="#F0F0F0"/>
<stop offset="0.4924" stop-color="white"/>
<stop offset="0.9998" stop-color="#E3E3E2"/>
</linearGradient>
<linearGradient id="paint28_linear" x1="-21.9293" y1="-289.05" x2="1648.04" y2="783.088" gradientUnits="userSpaceOnUse">
<stop offset="0.00337891" stop-color="#F0F0F0"/>
<stop offset="0.4924" stop-color="white"/>
<stop offset="0.9998" stop-color="#E3E3E2"/>
</linearGradient>
<linearGradient id="paint29_linear" x1="27.0433" y1="-365.33" x2="1697.01" y2="706.809" gradientUnits="userSpaceOnUse">
<stop offset="0.00337891" stop-color="#F0F0F0"/>
<stop offset="0.4924" stop-color="white"/>
<stop offset="0.9998" stop-color="#E3E3E2"/>
</linearGradient>
<linearGradient id="paint30_linear" x1="8.57432" y1="-336.565" x2="1678.54" y2="735.57" gradientUnits="userSpaceOnUse">
<stop offset="0.00337891" stop-color="#F0F0F0"/>
<stop offset="0.4924" stop-color="white"/>
<stop offset="0.9998" stop-color="#E3E3E2"/>
</linearGradient>
<linearGradient id="paint31_linear" x1="-15.9312" y1="-298.392" x2="1654.04" y2="773.748" gradientUnits="userSpaceOnUse">
<stop offset="0.00337891" stop-color="#F0F0F0"/>
<stop offset="0.4924" stop-color="white"/>
<stop offset="0.9998" stop-color="#E3E3E2"/>
</linearGradient>
<linearGradient id="paint32_linear" x1="-92.1794" y1="-179.628" x2="1577.78" y2="892.507" gradientUnits="userSpaceOnUse">
<stop offset="0.00337891" stop-color="#F0F0F0"/>
<stop offset="0.4924" stop-color="white"/>
<stop offset="0.9998" stop-color="#E3E3E2"/>
</linearGradient>
<linearGradient id="paint33_linear" x1="-161.489" y1="-71.67" x2="1508.47" y2="1000.47" gradientUnits="userSpaceOnUse">
<stop offset="0.00337891" stop-color="#F0F0F0"/>
<stop offset="0.4924" stop-color="white"/>
<stop offset="0.9998" stop-color="#E3E3E2"/>
</linearGradient>
<linearGradient id="paint34_linear" x1="-157.618" y1="-77.7028" x2="1512.35" y2="994.437" gradientUnits="userSpaceOnUse">
<stop offset="0.00337891" stop-color="#F0F0F0"/>
<stop offset="0.4924" stop-color="white"/>
<stop offset="0.9998" stop-color="#E3E3E2"/>
</linearGradient>
<linearGradient id="paint35_linear" x1="-144.495" y1="-98.1386" x2="1525.47" y2="973.996" gradientUnits="userSpaceOnUse">
<stop offset="0.00337891" stop-color="#F0F0F0"/>
<stop offset="0.4924" stop-color="white"/>
<stop offset="0.9998" stop-color="#E3E3E2"/>
</linearGradient>
<linearGradient id="paint36_linear" x1="-48.3927" y1="-247.832" x2="1621.58" y2="824.308" gradientUnits="userSpaceOnUse">
<stop offset="0.00337891" stop-color="#F0F0F0"/>
<stop offset="0.4924" stop-color="white"/>
<stop offset="0.9998" stop-color="#E3E3E2"/>
</linearGradient>
<linearGradient id="paint37_linear" x1="31.0772" y1="-371.613" x2="1701.04" y2="700.525" gradientUnits="userSpaceOnUse">
<stop offset="0.00337891" stop-color="#F0F0F0"/>
<stop offset="0.4924" stop-color="white"/>
<stop offset="0.9998" stop-color="#E3E3E2"/>
</linearGradient>
<linearGradient id="paint38_linear" x1="32.3002" y1="-373.524" x2="1702.27" y2="698.615" gradientUnits="userSpaceOnUse">
<stop offset="0.00337891" stop-color="#F0F0F0"/>
<stop offset="0.4924" stop-color="white"/>
<stop offset="0.9998" stop-color="#E3E3E2"/>
</linearGradient>
<linearGradient id="paint39_linear" x1="-70.5207" y1="-213.36" x2="1599.45" y2="858.776" gradientUnits="userSpaceOnUse">
<stop offset="0.00337891" stop-color="#F0F0F0"/>
<stop offset="0.4924" stop-color="white"/>
<stop offset="0.9998" stop-color="#E3E3E2"/>
</linearGradient>
<linearGradient id="paint40_linear" x1="-82.6093" y1="-194.53" x2="1587.35" y2="877.603" gradientUnits="userSpaceOnUse">
<stop offset="0.00337891" stop-color="#F0F0F0"/>
<stop offset="0.4924" stop-color="white"/>
<stop offset="0.9998" stop-color="#E3E3E2"/>
</linearGradient>
<linearGradient id="paint41_linear" x1="143.453" y1="-546.655" x2="1813.42" y2="525.484" gradientUnits="userSpaceOnUse">
<stop offset="0.00337891" stop-color="#F0F0F0"/>
<stop offset="0.4924" stop-color="white"/>
<stop offset="0.9998" stop-color="#E3E3E2"/>
</linearGradient>
<linearGradient id="paint42_linear" x1="105.6" y1="-487.694" x2="1775.57" y2="584.447" gradientUnits="userSpaceOnUse">
<stop offset="0.00337891" stop-color="#F0F0F0"/>
<stop offset="0.4924" stop-color="white"/>
<stop offset="0.9998" stop-color="#E3E3E2"/>
</linearGradient>
<linearGradient id="paint43_linear" x1="88.5282" y1="-461.101" x2="1758.5" y2="611.037" gradientUnits="userSpaceOnUse">
<stop offset="0.00337891" stop-color="#F0F0F0"/>
<stop offset="0.4924" stop-color="white"/>
<stop offset="0.9998" stop-color="#E3E3E2"/>
</linearGradient>
<linearGradient id="paint44_linear" x1="111.296" y1="-496.557" x2="1781.26" y2="575.579" gradientUnits="userSpaceOnUse">
<stop offset="0.00337891" stop-color="#F0F0F0"/>
<stop offset="0.4924" stop-color="white"/>
<stop offset="0.9998" stop-color="#E3E3E2"/>
</linearGradient>
<linearGradient id="paint45_linear" x1="196.622" y1="-629.47" x2="1866.59" y2="442.67" gradientUnits="userSpaceOnUse">
<stop offset="0.00337891" stop-color="#F0F0F0"/>
<stop offset="0.4924" stop-color="white"/>
<stop offset="0.9998" stop-color="#E3E3E2"/>
</linearGradient>
<linearGradient id="paint46_linear" x1="167.932" y1="-584.779" x2="1837.9" y2="487.357" gradientUnits="userSpaceOnUse">
<stop offset="0.00337891" stop-color="#F0F0F0"/>
<stop offset="0.4924" stop-color="white"/>
<stop offset="0.9998" stop-color="#E3E3E2"/>
</linearGradient>
<linearGradient id="paint47_linear" x1="103.933" y1="-485.093" x2="1773.9" y2="587.044" gradientUnits="userSpaceOnUse">
<stop offset="0.00337891" stop-color="#F0F0F0"/>
<stop offset="0.4924" stop-color="white"/>
<stop offset="0.9998" stop-color="#E3E3E2"/>
</linearGradient>
<linearGradient id="paint48_linear" x1="54.96" y1="-408.812" x2="1724.93" y2="663.325" gradientUnits="userSpaceOnUse">
<stop offset="0.00337891" stop-color="#F0F0F0"/>
<stop offset="0.4924" stop-color="white"/>
<stop offset="0.9998" stop-color="#E3E3E2"/>
</linearGradient>
<linearGradient id="paint49_linear" x1="73.4283" y1="-437.578" x2="1743.39" y2="634.558" gradientUnits="userSpaceOnUse">
<stop offset="0.00337891" stop-color="#F0F0F0"/>
<stop offset="0.4924" stop-color="white"/>
<stop offset="0.9998" stop-color="#E3E3E2"/>
</linearGradient>
<linearGradient id="paint50_linear" x1="97.9342" y1="-475.75" x2="1767.9" y2="596.39" gradientUnits="userSpaceOnUse">
<stop offset="0.00337891" stop-color="#F0F0F0"/>
<stop offset="0.4924" stop-color="white"/>
<stop offset="0.9998" stop-color="#E3E3E2"/>
</linearGradient>
<linearGradient id="paint51_linear" x1="174.182" y1="-594.515" x2="1844.15" y2="477.62" gradientUnits="userSpaceOnUse">
<stop offset="0.00337891" stop-color="#F0F0F0"/>
<stop offset="0.4924" stop-color="white"/>
<stop offset="0.9998" stop-color="#E3E3E2"/>
</linearGradient>
<linearGradient id="paint52_linear" x1="226.502" y1="-676.002" x2="1896.47" y2="396.133" gradientUnits="userSpaceOnUse">
<stop offset="0.00337891" stop-color="#F0F0F0"/>
<stop offset="0.4924" stop-color="white"/>
<stop offset="0.9998" stop-color="#E3E3E2"/>
</linearGradient>
<linearGradient id="paint53_linear" x1="130.393" y1="-526.311" x2="1800.36" y2="545.829" gradientUnits="userSpaceOnUse">
<stop offset="0.00337891" stop-color="#F0F0F0"/>
<stop offset="0.4924" stop-color="white"/>
<stop offset="0.9998" stop-color="#E3E3E2"/>
</linearGradient>
<linearGradient id="paint54_linear" x1="50.9248" y1="-402.53" x2="1720.89" y2="669.608" gradientUnits="userSpaceOnUse">
<stop offset="0.00337891" stop-color="#F0F0F0"/>
<stop offset="0.4924" stop-color="white"/>
<stop offset="0.9998" stop-color="#E3E3E2"/>
</linearGradient>
<linearGradient id="paint55_linear" x1="49.7015" y1="-400.62" x2="1719.67" y2="671.518" gradientUnits="userSpaceOnUse">
<stop offset="0.00337891" stop-color="#F0F0F0"/>
<stop offset="0.4924" stop-color="white"/>
<stop offset="0.9998" stop-color="#E3E3E2"/>
</linearGradient>
<linearGradient id="paint56_linear" x1="152.526" y1="-560.781" x2="1822.49" y2="511.356" gradientUnits="userSpaceOnUse">
<stop offset="0.00337891" stop-color="#F0F0F0"/>
<stop offset="0.4924" stop-color="white"/>
<stop offset="0.9998" stop-color="#E3E3E2"/>
</linearGradient>
<linearGradient id="paint57_linear" x1="164.612" y1="-579.614" x2="1834.58" y2="492.522" gradientUnits="userSpaceOnUse">
<stop offset="0.00337891" stop-color="#F0F0F0"/>
<stop offset="0.4924" stop-color="white"/>
<stop offset="0.9998" stop-color="#E3E3E2"/>
</linearGradient>
<linearGradient id="paint58_linear" x1="4.73326" y1="-330.587" x2="1674.7" y2="741.554" gradientUnits="userSpaceOnUse">
<stop offset="0.00337891" stop-color="#F0F0F0"/>
<stop offset="0.4924" stop-color="white"/>
<stop offset="0.9998" stop-color="#E3E3E2"/>
</linearGradient>
<linearGradient id="paint59_linear" x1="147.311" y1="-552.659" x2="1817.28" y2="519.479" gradientUnits="userSpaceOnUse">
<stop offset="0.00337891" stop-color="#F0F0F0"/>
<stop offset="0.4924" stop-color="white"/>
<stop offset="0.9998" stop-color="#E3E3E2"/>
</linearGradient>
<linearGradient id="paint60_linear" x1="240.002" y1="-697.036" x2="1909.97" y2="375.102" gradientUnits="userSpaceOnUse">
<stop offset="0.00337891" stop-color="#F0F0F0"/>
<stop offset="0.4924" stop-color="white"/>
<stop offset="0.9998" stop-color="#E3E3E2"/>
</linearGradient>
<linearGradient id="paint61_linear" x1="169.76" y1="-587.61" x2="1839.72" y2="484.522" gradientUnits="userSpaceOnUse">
<stop offset="0.00337891" stop-color="#F0F0F0"/>
<stop offset="0.4924" stop-color="white"/>
<stop offset="0.9998" stop-color="#E3E3E2"/>
</linearGradient>
<linearGradient id="paint62_linear" x1="100.443" y1="-479.656" x2="1770.41" y2="592.479" gradientUnits="userSpaceOnUse">
<stop offset="0.00337891" stop-color="#F0F0F0"/>
<stop offset="0.4924" stop-color="white"/>
<stop offset="0.9998" stop-color="#E3E3E2"/>
</linearGradient>
<linearGradient id="paint63_linear" x1="104.314" y1="-485.69" x2="1774.28" y2="586.448" gradientUnits="userSpaceOnUse">
<stop offset="0.00337891" stop-color="#F0F0F0"/>
<stop offset="0.4924" stop-color="white"/>
<stop offset="0.9998" stop-color="#E3E3E2"/>
</linearGradient>
<linearGradient id="paint64_linear" x1="117.436" y1="-506.127" x2="1787.4" y2="566.008" gradientUnits="userSpaceOnUse">
<stop offset="0.00337891" stop-color="#F0F0F0"/>
<stop offset="0.4924" stop-color="white"/>
<stop offset="0.9998" stop-color="#E3E3E2"/>
</linearGradient>
<linearGradient id="paint65_linear" x1="213.539" y1="-655.818" x2="1883.51" y2="416.323" gradientUnits="userSpaceOnUse">
<stop offset="0.00337891" stop-color="#F0F0F0"/>
<stop offset="0.4924" stop-color="white"/>
<stop offset="0.9998" stop-color="#E3E3E2"/>
</linearGradient>
<linearGradient id="paint66_linear" x1="293.007" y1="-779.599" x2="1962.97" y2="292.539" gradientUnits="userSpaceOnUse">
<stop offset="0.00337891" stop-color="#F0F0F0"/>
<stop offset="0.4924" stop-color="white"/>
<stop offset="0.9998" stop-color="#E3E3E2"/>
</linearGradient>
<linearGradient id="paint67_linear" x1="191.412" y1="-621.346" x2="1861.38" y2="450.791" gradientUnits="userSpaceOnUse">
<stop offset="0.00337891" stop-color="#F0F0F0"/>
<stop offset="0.4924" stop-color="white"/>
<stop offset="0.9998" stop-color="#E3E3E2"/>
</linearGradient>
<linearGradient id="paint68_linear" x1="179.324" y1="-602.515" x2="1849.29" y2="469.618" gradientUnits="userSpaceOnUse">
<stop offset="0.00337891" stop-color="#F0F0F0"/>
<stop offset="0.4924" stop-color="white"/>
<stop offset="0.9998" stop-color="#E3E3E2"/>
</linearGradient>
<linearGradient id="paint69_linear" x1="-12.9578" y1="-303.028" x2="1657.01" y2="769.109" gradientUnits="userSpaceOnUse">
<stop offset="0.00337891" stop-color="#F0F0F0"/>
<stop offset="0.4924" stop-color="white"/>
<stop offset="0.9998" stop-color="#E3E3E2"/>
</linearGradient>
<linearGradient id="paint70_linear" x1="-234.905" y1="42.6812" x2="1435.07" y2="1114.82" gradientUnits="userSpaceOnUse">
<stop offset="0.00337891" stop-color="#F0F0F0"/>
<stop offset="0.4924" stop-color="white"/>
<stop offset="0.9998" stop-color="#E3E3E2"/>
</linearGradient>
<linearGradient id="paint71_linear" x1="-212.47" y1="7.73334" x2="1457.5" y2="1079.87" gradientUnits="userSpaceOnUse">
<stop offset="0.00337891" stop-color="#F0F0F0"/>
<stop offset="0.4924" stop-color="white"/>
<stop offset="0.9998" stop-color="#E3E3E2"/>
</linearGradient>
<linearGradient id="paint72_linear" x1="-57.5604" y1="-233.549" x2="1612.4" y2="838.587" gradientUnits="userSpaceOnUse">
<stop offset="0.00337891" stop-color="#F0F0F0"/>
<stop offset="0.4924" stop-color="white"/>
<stop offset="0.9998" stop-color="#E3E3E2"/>
</linearGradient>
<linearGradient id="paint73_linear" x1="-185.473" y1="-34.3155" x2="1484.49" y2="1037.82" gradientUnits="userSpaceOnUse">
<stop offset="0.00337891" stop-color="#F0F0F0"/>
<stop offset="0.4924" stop-color="white"/>
<stop offset="0.9998" stop-color="#E3E3E2"/>
</linearGradient>
<linearGradient id="paint74_linear" x1="34.7932" y1="-377.403" x2="1704.76" y2="694.735" gradientUnits="userSpaceOnUse">
<stop offset="0.00337891" stop-color="#F0F0F0"/>
<stop offset="0.4924" stop-color="white"/>
<stop offset="0.9998" stop-color="#E3E3E2"/>
</linearGradient>
<linearGradient id="paint75_linear" x1="11.7531" y1="-341.515" x2="1681.72" y2="730.621" gradientUnits="userSpaceOnUse">
<stop offset="0.00337891" stop-color="#F0F0F0"/>
<stop offset="0.4924" stop-color="white"/>
<stop offset="0.9998" stop-color="#E3E3E2"/>
</linearGradient>
<linearGradient id="paint76_linear" x1="55.8601" y1="-410.221" x2="1725.83" y2="661.92" gradientUnits="userSpaceOnUse">
<stop offset="0.00337891" stop-color="#F0F0F0"/>
<stop offset="0.4924" stop-color="white"/>
<stop offset="0.9998" stop-color="#E3E3E2"/>
</linearGradient>
<linearGradient id="paint77_linear" x1="-288.347" y1="125.925" x2="1381.62" y2="1198.06" gradientUnits="userSpaceOnUse">
<stop offset="0.00337891" stop-color="#F0F0F0"/>
<stop offset="0.4924" stop-color="white"/>
<stop offset="0.9998" stop-color="#E3E3E2"/>
</linearGradient>
</defs>
</svg>
