<svg width="17" height="26" viewBox="0 0 17 26" fill="none" xmlns="http://www.w3.org/2000/svg">
<path d="M8.33383 11.7818C11.6778 11.7818 14.3983 9.13925 14.3983 5.89098C14.3982 2.64265 11.6777 0 8.33383 0C4.98931 0 2.26831 2.64265 2.26831 5.89098C2.26831 9.13918 4.98931 11.7818 8.33383 11.7818Z" fill="white"/>
<path d="M16.6364 19.9488L15.5885 14.791C15.4455 14.0879 14.7561 13.5371 14.0188 13.5371H2.64788C1.9106 13.5371 1.22115 14.0879 1.07822 14.7911L0.0302439 19.9488C-0.105321 20.6157 0.226847 21.4579 0.786447 21.8662C0.965709 21.997 5.21232 25.0695 8.33334 25.0695C11.4544 25.0695 15.701 21.997 15.8802 21.8662C16.4398 21.4579 16.772 20.6157 16.6364 19.9488Z" fill="white"/>
</svg>
