<svg width="148" height="64" fill="none" xmlns="http://www.w3.org/2000/svg"><path d="M73.928 3.38c9.484 0 17.171 7.694 17.171 17.186s-7.687 17.187-17.17 17.187c-9.484 0-17.172-7.695-17.172-17.187S64.445 3.38 73.928 3.38zm0-1.618c-10.345 0-18.787 8.413-18.787 18.804 0 10.391 8.406 18.805 18.787 18.805 10.382 0 18.788-8.414 18.788-18.805 0-10.39-8.442-18.804-18.788-18.804z" fill="#C19E00"/><path d="M82.909 4.854l-.072-.683-5.568 7.335.108.539h.395c1.473 0 2.694-.467 3.556-1.402 1.976-2.014 1.58-5.61 1.58-5.79zm-5.317 8.449l.108.755c1.006.252 1.976.396 2.874.396 1.437 0 2.73-.324 3.844-.97 2.622-1.547 3.34-4.351 3.34-4.46l.144-.539-10.31 4.818z" fill="#14AD00"/><path d="M89.41 13.915c-5.316 1.761-11.459 2.157-11.495 2.157 0 .18.036.395.036.575l.144.072c1.832.935 3.52 1.402 5.137 1.402.79 0 1.545-.107 2.263-.36 2.91-.934 4.239-3.379 4.275-3.487l.287-.575-.646.216z" fill="#007A18"/><path d="M90.38 17.618c-5.819 2.301-12.357 1.115-12.428 1.079h-.072c0 .18-.036.395-.036.575 1.94 1.726 3.951 2.625 5.927 2.625.251 0 .503 0 .754-.036 3.736-.396 6.071-3.668 6.179-3.812l.539-.79-.862.359zm.072 5.789c-8.046.934-12.608-1.618-12.644-1.618l-.288-.144c-.036.18-.072.323-.107.503l.035.036c1.617 2.373 3.593 3.74 5.856 4.063.36.036.682.072 1.006.072 3.448 0 6.214-2.301 6.358-2.409l.682-.575-.898.072z" fill="#14AD00"/><path d="M88.046 29.375c-6.897.144-11.316-4.386-11.352-4.422l-.144-.144c-.071.216-.18.395-.25.611.825 2.769 2.226 4.566 4.202 5.393.826.36 1.724.468 2.55.468 2.659 0 4.994-1.33 5.137-1.402l.898-.54-1.041.036z" fill="#007A18"/><path d="M84.094 33.654c-3.808-.468-8.298-5.07-9.052-5.897l-.431.647c.754 2.841 2.047 4.747 3.915 5.681a6.45 6.45 0 002.802.648c1.58 0 2.766-.54 2.874-.576l.898-.395-1.006-.108zm-6.286 3.308c-2.623-1.403-4.778-6.04-4.814-6.113l-.144-.287c-.143.144-.25.287-.395.395-.18 2.41.324 4.207 1.51 5.322 1.077 1.006 2.442 1.186 3.196 1.186.323 0 .503-.036.539-.036l.79-.108-.682-.36z" fill="#14AD00"/><path d="M76.622 11.11c-.143-.216-.503-.755-.826-1.69-1.58-1.582-4.454-3.955-7.903-4.782l-.682-.18.395.576c.18.287 4.454 6.328 8.693 6.328.108 0 .251 0 .36-.036 0-.072-.037-.144-.037-.216z" fill="#007A18"/><path d="M75.976.611L75.616 0l-.143.72c-.79 4.278-.252 7.082.323 8.7.323.935.683 1.474.826 1.69l.144-.036.36-.072c0 .036.035.108.035.144C79.388 6.616 76.084.863 75.976.611zm1.185 13.447c-1.58-1.366-6.717-5.5-11.315-5.393h-.575l.395.432c.216.251 5.28 5.896 10.885 5.896.25 0 .466-.036.718-.036-.036-.323-.072-.61-.108-.899zM62.254 9.816l-.827-.791.395 1.078c.036.108 3.413 9.169 13.04 9.169.79 0 1.617-.072 2.479-.18 0-.216.036-.395.036-.611-1.437-.575-10.49-4.243-15.123-8.665z" fill="#14AD00"/><path d="M58.015 13.95l-.79-.647.359.935c.035.108 3.592 8.917 13.578 8.917 1.689 0 3.52-.252 5.604-.827.036-.216.108-.395.144-.611-.862.108-8.837.431-18.895-7.766z" fill="#007A18"/><path d="M57.907 23.407l-.898-.18.646.647c.072.072 3.988 3.955 10.166 3.955 2.3 0 4.886-.54 7.688-1.977.144-.288.287-.612.43-.935-1.544.072-9.303.431-18.032-1.51z" fill="#14AD00"/><path d="M77.916 16.611c0-.18 0-.36-.036-.575-.036-.647-.108-1.33-.18-2.014l-.108-.755c-.072-.395-.143-.79-.215-1.222l-.108-.54c-.036-.143-.072-.251-.072-.395 0-.036-.036-.108-.036-.144l-.359.072-.144.036c0 .072.036.144.036.216.216.935.36 1.834.503 2.697.036.323.072.61.108.898.108 1.223.144 2.41.108 3.524 0 .216-.036.396-.036.611a19.717 19.717 0 01-.395 2.66c-.036.217-.108.396-.144.612a17.212 17.212 0 01-.826 2.517c-.144.324-.288.611-.431.935-3.808 7.766-12.106 10.175-12.214 10.211l.144.503c.107-.035 4.957-1.438 9.016-5.537l.395-.395a18.069 18.069 0 001.76-2.193l.432-.648c.467-.719.898-1.51 1.257-2.337.072-.215.18-.395.251-.61.324-.828.611-1.727.827-2.697.035-.18.072-.324.107-.504.144-.755.252-1.546.324-2.373 0-.18.036-.395.036-.575.035-.575.035-1.259 0-1.978z" fill="#007A18"/><path d="M73.066 27.793c-.108.036-9.088 3.093-12.788 2.913l-1.222-.072 1.078.575c.036.036 2.263 1.15 5.101 1.15 2.515 0 5.568-.862 8.083-4.17l.538-.72-.79.324z" fill="#007A18"/><path d="M48.747 18.121H47.13v6.4h1.617v-6.4zm51.979 0H99.11v6.4h1.616v-6.4z" fill="#C19E00"/><path d="M13.758 51.38c0-3.164-2.263-5.393-5.496-5.393H.072V63.64h2.766v-6.832h4.777l4.24 6.832h3.16l-4.526-7.227c2.012-.791 3.27-2.661 3.27-5.034zm-5.604 2.876H2.802V48.54h5.352c1.76 0 2.874 1.115 2.874 2.84 0 1.763-1.114 2.877-2.874 2.877zm38.329-3.739c-3.915 0-6.61 2.732-6.61 6.651 0 3.92 2.73 6.652 6.61 6.652 3.88 0 6.61-2.732 6.61-6.651 0-3.92-2.694-6.652-6.61-6.652zm0 10.786c-2.335 0-3.88-1.654-3.88-4.134 0-2.481 1.545-4.135 3.88-4.135s3.88 1.654 3.88 4.135c0 2.48-1.58 4.134-3.88 4.134zM61.786 50.66c-1.616 0-3.053.504-4.095 1.69v-1.69h-2.694v12.98h2.694v-5.86c0-2.697 1.724-4.674 4.095-4.674h.647V50.66h-.647zm22.596 4.89h-6.934v2.266h6.934V55.55zm-50.184.288c-1.509-.503-2.443-.54-2.515-1.618-.035-.719.862-1.222 2.084-1.222 1.078 0 2.012.323 2.622.97l.252.252 1.688-1.69-.251-.287C37 51.128 35.49 50.517 33.73 50.517c-2.802 0-4.706 1.51-4.706 3.775 0 2.553 2.55 3.2 4.383 3.703.754.216 2.55.828 2.55 1.978 0 .791-1.006 1.366-2.407 1.366-1.15 0-2.263-.395-2.981-1.006l-.216-.216-1.724 1.726.323.287c1.222 1.115 2.838 1.726 4.598 1.726 3.018 0 5.03-1.582 5.03-3.919.035-3.164-4.383-4.099-4.383-4.099zm37.539 4.998c-.323.288-.719.431-1.221.431-1.006 0-1.617-.683-1.617-1.69v-6.471h4.347v-2.41h-4.347v-4.314s-.539.899-2.694 1.906v2.373h-2.3v2.409h2.3v6.615c0 2.373 1.724 4.1 4.13 4.1 1.222 0 2.264-.468 3.054-1.331l-1.652-1.618zM95.984 50.66c-1.4 0-2.658.36-3.628 1.26v-6.51h-2.694v17.33l.36.18c1.185.54 2.765.863 4.274.863 4.383 0 7.436-2.876 7.436-7.01.036-3.668-2.335-6.113-5.748-6.113zm-.251 2.482c2.407 0 3.269 1.438 3.269 3.739 0 2.625-1.796 4.422-4.454 4.422a7.703 7.703 0 01-2.192-.323v-2.41c0-3.45 1.15-5.428 3.377-5.428zm28.666 7.694c-.323.288-.718.431-1.221.431-1.006 0-1.617-.683-1.617-1.69v-6.471h4.347v-2.41h-4.347v-4.314s-.539.899-2.694 1.906v2.373h-2.299v2.409h2.299v6.615c0 2.373 1.724 4.1 4.131 4.1 1.221 0 2.263-.468 3.053-1.331l-1.652-1.618z" fill="#303030"/><path d="M133.631 60.836c-.323.288-.718.431-1.221.431-1.006 0-1.617-.683-1.617-1.69v-6.471h4.347v-2.41h-4.347v-4.314s-.539.899-2.694 1.906v2.373H125.8v2.409h2.299v6.615c0 2.373 1.724 4.1 4.131 4.1 1.221 0 2.263-.468 3.053-1.331l-1.652-1.618zm8.801-10.319c-1.94 0-4.059.755-5.209 1.905l-.107.108 1.688 1.69.036-.036c.79-.683 2.227-1.186 3.484-1.186 1.689 0 2.838.863 2.838 2.121v.432c-.072 0-.108 0-.179-.036a10.902 10.902 0 00-1.833-.18c-.646 0-1.293.072-1.867.18-1.258.215-2.3.683-3.09 1.33-.97.79-1.509 1.798-1.509 3.02 0 1.223.575 2.265 1.509 2.984.79.612 1.868.935 3.09.935 1.508 0 2.873-.54 3.915-1.51v1.33h2.658v-8.52c-.036-2.626-2.335-4.567-5.424-4.567zm-.826 10.822c-1.329 0-2.227-.647-2.227-1.546 0-1.402 1.616-2.085 3.843-2.085a8.13 8.13 0 011.904.216c-.215 1.977-1.652 3.415-3.52 3.415zm-28.091-1.366l-.252.252c-.718.719-1.796 1.078-3.089 1.078-2.227 0-3.844-1.222-4.167-3.092 0 0 6.681.827 8.621-1.977 2.12-3.092-.718-6.185-5.137-5.681-3.628.395-6.286 2.732-6.286 6.508 0 3.99 2.802 6.795 6.825 6.795 1.976 0 3.772-.683 4.957-1.941l.216-.216-1.688-1.726zm-3.233-7.155c1.58 0 2.694.54 2.694 1.366 0 1.223-1.94 1.834-4.598 1.834-.791 0-1.617-.072-2.299-.18.251-1.762 1.975-3.02 4.203-3.02zM25.54 59.973l-.25.252c-.72.719-1.797 1.078-3.09 1.078-2.227 0-3.844-1.222-4.167-3.092 0 0 6.681.827 8.621-1.977 2.12-3.092-.718-6.185-5.137-5.681-3.628.395-6.286 2.732-6.286 6.508 0 3.99 2.802 6.795 6.825 6.795 1.976 0 3.772-.683 4.957-1.941l.216-.216-1.688-1.726zm-3.232-7.155c1.58 0 2.694.54 2.694 1.366 0 1.223-1.94 1.834-4.598 1.834-.79 0-1.617-.072-2.3-.18.216-1.762 1.94-3.02 4.204-3.02z" fill="#303030"/></svg>