<svg width="110" height="81" fill="none" xmlns="http://www.w3.org/2000/svg"><path d="M55 6.985c19.404 0 35.195 15.85 35.195 35.328S74.404 77.642 55 77.642s-35.195-15.85-35.195-35.328S35.596 6.984 55 6.984zm0-3.358c-21.277 0-38.54 17.328-38.54 38.686C16.46 63.672 33.723 81 55 81c21.277 0 38.54-17.328 38.54-38.687C93.54 20.955 76.277 3.627 55 3.627z" fill="#C19E00"/><path d="M73.467 10.075l-.134-1.344L61.96 23.776c.133.403.133.806.267 1.075h.803c3.078 0 5.487-.94 7.36-2.821 3.881-4.299 3.078-11.687 3.078-11.955zM62.494 27.403c.134.537.134 1.075.267 1.612 2.142.537 4.015.806 5.889.806 2.944 0 5.62-.672 7.895-2.015 5.353-3.224 6.825-9 6.825-9.269l.267-1.074-21.143 9.94zm24.221 1.209c-10.84 3.627-23.418 4.433-23.552 4.433v1.209l.268.134c3.747 1.88 7.226 2.955 10.571 2.955 1.606 0 3.078-.268 4.684-.671 6.022-1.88 8.698-6.985 8.832-7.254l.67-1.209-1.473.403z" fill="#C19E00"/><path d="M88.723 36.269c-11.91 4.701-25.292 2.283-25.426 2.283h-.134c0 .403 0 .806-.134 1.21 4.015 3.626 8.03 5.372 12.178 5.372.535 0 1.07 0 1.472-.134 7.628-.806 12.445-7.522 12.713-7.791l1.07-1.478-1.74.538zm.133 11.955c-16.46 1.88-25.827-3.358-25.96-3.358l-.536-.269c-.134.403-.134.672-.268 1.075l.134.134c3.346 4.836 7.36 7.657 12.044 8.328.67.135 1.472.135 2.141.135 7.093 0 12.713-4.702 12.98-4.97l1.473-1.21-2.008.135zm-4.951 12.224c-14.185.268-23.15-9-23.285-9.135l-.267-.268c-.134.403-.402.806-.535 1.209 1.74 5.642 4.55 9.403 8.564 11.015 1.74.671 3.48.94 5.219.94 5.487 0 10.304-2.687 10.572-2.955l1.873-1.075-2.14.269zm-8.029 8.865c-7.762-.94-16.995-10.477-18.601-12.09-.268.404-.535.941-.937 1.344 1.606 5.776 4.282 9.806 8.03 11.687 2.007.94 4.014 1.343 5.754 1.343 3.211 0 5.754-1.075 5.888-1.209l1.873-.806-2.007-.269zm-12.981 6.851c-5.352-2.955-9.902-12.492-9.902-12.492l-.268-.538-.803.806c-.401 4.97.67 8.732 3.078 11.015 2.275 2.15 5.085 2.418 6.557 2.418h1.07l1.607-.269-1.339-.94zm-2.408-53.328a15.597 15.597 0 01-1.74-3.493c-3.212-3.224-9.1-8.06-16.192-9.806l-1.472-.403.803 1.21c.401.537 9.1 13.03 17.932 13.03h.803c0-.135 0-.27-.134-.538z" fill="#C19E00"/><path d="M59.148 1.343L58.345 0l-.267 1.478c-1.606 8.731-.535 14.507.669 18 .67 1.88 1.338 3.09 1.74 3.492l.267-.134.803-.134v.268c4.684-9.268-2.14-21.224-2.409-21.627zm2.409 27.537c-3.212-2.82-13.783-11.283-23.15-11.149h-1.205l.803.94c.401.538 10.84 12.09 22.348 12.09.535 0 .936 0 1.472-.134 0-.537-.134-1.075-.268-1.746zm-30.511-8.73l-1.74-1.613.803 2.284c.134.268 6.96 18.806 26.764 18.806 1.606 0 3.346-.135 5.086-.403 0-.403 0-.806.133-1.21-2.944-1.208-21.545-8.73-31.046-17.865z" fill="#C19E00"/><path d="M22.348 28.746l-1.606-1.343.803 2.015c.134.269 7.36 18.403 27.834 18.403 3.48 0 7.227-.537 11.51-1.746.133-.403.267-.806.267-1.21-1.74 0-18.2.672-38.808-16.119zm-.268 19.478l-1.873-.403 1.338 1.343c.134.134 8.163 8.06 20.876 8.06 4.684 0 10.036-1.075 15.79-4.164.268-.672.536-1.21.804-1.88-3.078.268-19.003.94-36.935-2.956z" fill="#C19E00"/><path d="M63.163 34.254v-1.21a448.902 448.902 0 01-.401-4.163c0-.538-.134-1.075-.268-1.612l-.401-2.418c-.134-.403-.134-.806-.268-1.075 0-.268-.134-.537-.134-.806v-.268l-.803.134h-.401c0 .134 0 .269.133.403.402 1.88.803 3.761.937 5.507.134.672.134 1.21.268 1.88.267 2.553.267 4.971.134 7.255 0 .403 0 .806-.134 1.209a36.38 36.38 0 01-.803 5.507c-.134.403-.134.806-.268 1.209-.401 1.88-1.07 3.492-1.74 5.239-.267.671-.535 1.343-.802 1.88C50.45 69.18 33.455 74.015 33.187 74.15l.268 1.075c.134 0 10.17-2.955 18.601-11.418l.803-.806a28.977 28.977 0 003.613-4.433c.268-.403.535-.94.937-1.343.937-1.478 1.873-3.09 2.542-4.836.134-.403.402-.806.536-1.209.669-1.746 1.338-3.627 1.74-5.507.133-.403.133-.672.267-1.075.268-1.612.535-3.224.67-4.836 0-.403 0-.806.133-1.209-.134-1.477-.134-2.82-.134-4.298z" fill="#C19E00"/><path d="M53.26 57.224c-.133 0-18.6 6.448-26.228 6.045l-2.543-.135 2.275 1.21c.134 0 4.55 2.417 10.438 2.417 5.219 0 11.375-1.746 16.594-8.597l1.07-1.477-1.606.537zM3.345 37.343H0v13.164h3.345V37.343zm106.655 0h-3.345v13.164H110V37.343z" fill="#C19E00"/></svg>