<svg width="1440" height="381" fill="none" xmlns="http://www.w3.org/2000/svg"><g opacity=".05"><path d="M138.653 29.78c-71.637-2.14-77.477-76.282-79.034-92.823-.39-4.087-.974-7.979-1.752-12.066-.779-4.086-1.947-8.757-3.115-11.87-9.344-24.714-33.677-42.423-61.904-42.423-27.448 0-51.003 16.541-61.125 40.282 9.149-4.67 19.466-7.2 30.368-7.2 21.218 0 40.101 9.73 52.17 25.298 0 0-36.013-17.903-57.426-7.59-.195.195 25.89 6.812 36.986 33.861 10.902 26.66-3.893 40.866-3.893 40.866C3.36 21.608 40.736 39.9 84.731 39.9c21.997 0 37.57-2.53 53.922-10.12-2.92.974 0 0 0 0z" fill="url(#paint0_linear)"/><path d="M-13.965 21.608s16.157 13.427 39.322 24.52c16.158 7.589 56.843 23.351 32.315 79.396 0 0-10.317-28.217-44.384-46.315-35.819-19.07-27.253-57.601-27.253-57.601z" fill="url(#paint1_linear)"/><path d="M142.741-26.459c-6.424-1.362-11.096-1.556-14.6-.778.974-4.67 2.336-9.73 4.478-14.79 16.352-39.503-13.822-59.158-13.822-59.158s-2.92 13.233-12.458 30.552C89.597-40.47 85.509-.577 132.619 17.132c-5.451-33.666 10.122-43.59 10.122-43.59z" fill="url(#paint2_linear)"/><path d="M72.856 54.3s16.352 26.077 5.256 68.11c0 0 23.36 7.006 28.032-19.265 0 0 11.291 17.709 26.864 7.589 16.352-10.703-1.363-40.476-1.363-40.476s29.2-14.4 15.768-31.136c.39-.195-30.173 18.876-74.557 15.178z" fill="url(#paint3_linear)"/><path d="M176.613-138.937s33.094 7.784 45.552 53.904c14.211 52.542-8.954 143.03-45.552 156.264 0 0 83.902-4.67 109.987-75.7l-20.245-5.643s68.717-80.37 10.122-129.02c-50.808-41.839-99.864.195-99.864.195z" fill="url(#paint4_linear)"/><path d="M176.224 39.9s0-26.855-23.944-31.914c0 0 5.451-21.796 28.032-11.871 0 0-2.531-24.714 19.467-25.687 21.997-.973 3.504 57.212-23.555 69.472z" fill="url(#paint5_linear)"/><path d="M162.597 94.193S301.2 86.02 323.392 207.84c22.192 121.819 106.093 63.05 106.093 63.05s-53.728 85.624-122.056 23.158c-60.541-55.461-14.016-151.788-144.832-199.855z" fill="url(#paint6_linear)"/><path d="M118.408 130.778s49.64 105.863-32.704 133.107c0 .194 51.197-69.667 32.704-133.107z" fill="url(#paint7_linear)"/><path d="M133.203 133.892s35.624 54.877 19.077 97.884c0 .194 50.419-41.45-19.077-97.884z" fill="url(#paint8_linear)"/><path d="M152.28 125.524s46.915 19.46 46.915 61.688c0 0 20.829-58.574-46.915-61.688z" fill="url(#paint9_linear)"/><path d="M220.024 83.49s80.008-23.935 94.219-83.872c0 0 27.642 10.119 18.298 40.671 0 0 32.51-2.919 34.651 27.828 2.336 34.833-39.517 30.358-39.517 30.358s18.298 29.384-2.92 49.039c0 0-24.723-62.272-104.731-64.024z" fill="url(#paint10_linear)"/><path d="M351.229 5.261s34.651.39 58.206-13.038c-.195-.195-13.238 41.644-58.206 13.038z" fill="url(#paint11_linear)"/><path d="M337.992 166.001s-12.848 86.597 47.499 96.716c46.525 7.784 79.034-48.066 43.994-75.505-31.536-24.909-60.541 7.2-49.25 31.331 0 0-20.246 13.622-42.243-52.542z" fill="url(#paint12_linear)"/><path d="M228.2 178.066S191.213 289.183 85.704 291.129c0 0 6.424 45.925 71.832 25.687 0 0-19.467 18.876 5.061 28.217 24.334 9.535 34.846-53.126 31.926-60.715 0 0-4.088 87.18 60.736 96.716l-3.699-29.969s36.013 52.153 65.019 17.709c23.554-27.828-31.147-27.633-61.32-91.851-21.219-44.953-27.059-98.857-27.059-98.857z" fill="url(#paint13_linear)"/><path d="M100.888 147.514s-1.752 79.591-54.896 78.424c-53.144-1.168-37.765-72.197 0-59.937 0 0 18.104 5.643 18.688 20.627 0 .195 19.272 5.255 36.208-39.114z" fill="url(#paint14_linear)"/><path d="M344.221 115.016s14.016 22.768 21.608 65.385c0 0 26.086-60.131-21.608-65.385z" fill="url(#paint15_linear)"/><path d="M367.387 106.453s21.997 8.563 19.077 59.548c0 0 33.677-57.018-19.077-59.548z" fill="url(#paint16_linear)"/><path d="M192.965 332.773s-13.626 73.948 30.758 84.067c0 0-17.326-22.379 6.813-25.298 0 0-36.792-16.735-37.571-58.769z" fill="url(#paint17_linear)"/><path d="M713.504 266.414c71.637 2.141 77.477 76.284 79.035 92.825.389 4.086.973 7.978 1.752 12.065.778 4.086 1.946 8.757 3.114 11.87 9.734 24.909 33.872 42.423 62.099 42.423 27.448 0 51.003-16.541 61.125-40.282-9.149 4.67-19.466 7.2-30.368 7.2-21.218 0-40.101-9.924-52.365-25.298 0 0 36.013 17.903 57.427 7.59.194-.195-25.891-6.811-36.987-33.861-10.901-26.66 3.893-40.866 3.893-40.866-13.432-25.492-50.808-43.785-94.802-43.785-21.803-.194-37.376 2.335-53.923 10.119 2.92-.973 0 0 0 0z" fill="url(#paint18_linear)"/><path d="M902.915 362.547s-6.23-11.092 4.088-29.969c10.317-18.681 34.845-58.769-28.616-95.354 0 0 14.794 28.412 0 64.218-17.715 43.007 24.528 61.105 24.528 61.105z" fill="url(#paint19_linear)"/><path d="M866.317 274.393s-16.157-13.427-39.322-24.52c-16.158-7.589-56.843-23.352-32.315-79.396 0 0 10.317 28.217 44.384 46.314 35.624 19.071 27.253 57.602 27.253 57.602z" fill="url(#paint20_linear)"/><path d="M709.611 322.459c6.424 1.362 11.096 1.557 14.6.779-.974 4.67-2.336 9.73-4.478 14.789-16.352 39.504 13.822 59.159 13.822 59.159s2.92-13.233 12.458-30.553c16.742-30.163 20.83-70.056-26.28-87.764 5.256 33.666-10.122 43.59-10.122 43.59z" fill="url(#paint21_linear)"/><path d="M779.301 241.895s-16.352-26.077-5.256-68.11c0 0-23.36-7.006-28.032 19.265 0 0-11.29-17.708-26.864-7.589-16.352 10.703 1.363 40.477 1.363 40.477s-29.2 14.4-15.768 31.136c-.195.194 30.368-18.877 74.557-15.179z" fill="url(#paint22_linear)"/><path d="M752.243 417.424l7.202-9.535s-7.981 48.844 53.728 66.942c21.608 6.422 35.43 16.541 35.43 16.541s23.165-43.785-28.227-61.104l-5.061-1.946c-12.07-5.449-41.27-24.52-41.464-83.289.194 0-36.014 51.374-21.608 72.391z" fill="url(#paint23_linear)"/><path d="M675.739 434.938s-33.094-7.784-45.552-53.904c-14.211-52.542 8.954-143.031 45.552-156.264 0 0-83.902 4.67-109.987 75.699l20.245 5.644s-68.717 80.37-10.122 129.02c50.808 42.033 99.864-.195 99.864-.195z" fill="url(#paint24_linear)"/><path d="M675.933 256.101s0 26.855 23.944 31.914c0 0-5.45 21.795-28.032 11.871 0 0 2.531 24.714-19.466 25.687-21.998.973-3.504-57.212 23.554-69.472z" fill="url(#paint25_linear)"/><path d="M694.816 335.108s-30.368 61.494 15.379 72.586c0 0-12.848 9.535-29.2 7.589-15.379-1.946-26.086-13.816-27.448-27.049-4.672-41.061 41.269-53.126 41.269-53.126z" fill="url(#paint26_linear)"/><path d="M644.981 341.919s17.91 5.644 44.774-3.892c0 .195-27.059 39.309-44.774 3.892z" fill="url(#paint27_linear)"/><path d="M689.755 201.807S551.152 209.98 528.96 88.161C506.768-33.66 422.867 25.11 422.867 25.11s53.728-85.625 122.056-23.158c60.541 55.461 13.821 151.788 144.832 199.854z" fill="url(#paint28_linear)"/><path d="M733.944 165.222S684.304 59.36 766.648 32.116c0 0-51.392 69.667-32.704 133.106z" fill="url(#paint29_linear)"/><path d="M719.149 162.109s-35.624-54.877-19.077-97.884c0 0-50.419 41.45 19.077 97.884z" fill="url(#paint30_linear)"/><path d="M700.072 170.671s-46.915-19.46-46.915-61.688c-.194-.195-20.829 58.38 46.915 61.688z" fill="url(#paint31_linear)"/><path d="M632.133 212.705s-80.008 23.936-94.218 83.872c0 0-27.643-10.119-18.299-40.671 0 0-32.509 2.919-34.651-27.828-2.336-34.833 39.518-30.357 39.518-30.357s-18.299-29.385 2.92-49.04c0-.194 24.917 62.078 104.73 64.024z" fill="url(#paint32_linear)"/><path d="M530.517 319.346c1.752-1.362-27.253 55.071-4.866 103.138 0-.195-58.4-54.488 4.866-103.138z" fill="url(#paint33_linear)"/><path d="M514.36 303.972s-32.509 18.098-49.835 66.748c-.194 0-20.44-60.715 49.835-66.748z" fill="url(#paint34_linear)"/><path d="M501.123 290.934s-34.651-.389-58.206 13.038c0 0 13.238-41.644 58.206-13.038z" fill="url(#paint35_linear)"/><path d="M514.36 130s12.848-86.597-47.499-96.716c-46.525-7.784-79.034 48.066-43.994 75.504 31.536 24.909 60.541-7.2 49.25-31.33-.194.194 20.051-13.428 42.243 52.542z" fill="url(#paint36_linear)"/><path d="M624.152 117.935S661.139 6.818 766.648 4.872c0 0-6.424-45.925-71.832-25.687 0 0 19.467-18.876-5.061-28.217-24.334-9.536-34.846 53.126-31.926 60.715 0 0 4.088-87.18-60.736-96.716l3.699 29.968s-36.013-52.153-65.019-17.708c-23.554 27.827 31.147 27.633 61.32 91.85 21.219 45.148 27.059 98.858 27.059 98.858z" fill="url(#paint37_linear)"/><path d="M751.269 148.487s1.752-79.592 54.896-78.424c53.144 1.168 37.766 72.197 0 59.937 0 0-18.104-5.644-18.688-20.628 0 0-19.272-5.254-36.208 39.115z" fill="url(#paint38_linear)"/><path d="M508.131 180.985s-14.016-22.768-21.608-65.386c-.195 0-26.28 60.326 21.608 65.386z" fill="url(#paint39_linear)"/><path d="M484.965 189.547s-21.997-8.562-19.077-59.547c0 0-33.872 57.018 19.077 59.547z" fill="url(#paint40_linear)"/><path d="M989.736-.382c-71.637-2.14-77.477-76.283-79.035-92.824-.389-4.087-.973-7.979-1.752-12.066-.778-4.086-1.946-8.757-3.114-11.87-9.734-24.909-33.872-42.423-62.099-42.423-27.448 0-51.003 16.541-61.125 40.282 9.149-4.67 19.466-7.2 30.368-7.2 21.218 0 40.101 9.925 52.365 25.298 0 0-36.013-17.903-57.427-7.589-.194.194 25.891 6.811 36.987 33.86 10.901 26.66-3.893 40.866-3.893 40.866 13.432 25.493 50.808 43.785 94.802 43.785 21.803 0 37.376-2.335 53.923-10.12-3.115.974 0 0 0 0z" fill="url(#paint41_linear)"/><path d="M800.325-96.514s6.23 11.092-4.088 29.968c-10.317 18.682-34.845 58.77 28.616 95.354 0 0-14.794-28.412 0-64.218 17.715-43.007-24.528-61.105-24.528-61.105z" fill="url(#paint42_linear)"/><path d="M836.923-8.36s16.157 13.427 39.322 24.519c16.158 7.59 56.843 23.352 32.315 79.397 0 0-10.317-28.217-44.384-46.315-35.819-19.266-27.253-57.602-27.253-57.602z" fill="url(#paint43_linear)"/><path d="M923.744 24.137s16.352 26.077 5.256 68.11c0 0 23.36 7.006 28.032-19.265 0 0 11.291 17.709 26.864 7.59 16.354-10.704-1.363-40.477-1.363-40.477s29.197-14.4 15.768-31.136c.39-.195-30.173 18.876-74.557 15.178z" fill="url(#paint44_linear)"/><path d="M1027.5-169.1s33.09 7.784 45.55 53.904c14.21 52.542-8.95 143.03-45.55 156.264 0 0 83.9-4.67 109.99-75.7l-20.25-5.643s68.72-80.37 10.13-129.02c-50.81-41.839-99.87.195-99.87.195z" fill="url(#paint45_linear)"/><path d="M1027.31 9.737s0-26.855-23.95-31.914c0 0 5.45-21.796 28.03-11.871 0 0-2.53-24.714 19.47-25.687 22-.779 3.31 57.407-23.55 69.472z" fill="url(#paint46_linear)"/><path d="M1013.49 64.225s138.6-8.173 160.79 113.646c22.19 121.82 106.09 63.051 106.09 63.051s-53.72 85.624-122.05 23.157c-60.54-55.655-14.02-151.788-144.83-199.854z" fill="url(#paint47_linear)"/><path d="M969.296 100.615s49.644 105.863-32.704 133.107c0 .194 51.197-69.473 32.704-133.107z" fill="url(#paint48_linear)"/><path d="M984.091 103.923s35.619 54.878 19.079 97.884c0 0 50.42-41.644-19.079-97.884z" fill="url(#paint49_linear)"/><path d="M1003.17 95.361s46.91 19.46 46.91 61.688c0 0 20.83-58.574-46.91-61.688z" fill="url(#paint50_linear)"/><path d="M1070.91 53.327s80.01-23.935 94.22-83.872c0 0 27.64 10.119 18.3 40.671 0 0 32.51-2.919 34.65 27.828 2.34 34.833-39.52 30.358-39.52 30.358s18.3 29.384-2.92 49.039c0 0-24.72-62.078-104.73-64.024z" fill="url(#paint51_linear)"/><path d="M1202.12-24.902s34.65.39 58.2-13.038c0 0-13.23 41.644-58.2 13.038z" fill="url(#paint52_linear)"/><path d="M1188.88 136.032s-12.85 86.597 47.5 96.717c46.52 7.784 79.03-48.067 43.99-75.505-31.53-24.909-60.54 7.2-49.25 31.33 0-.194-20.24 13.428-42.24-52.542z" fill="url(#paint53_linear)"/><path d="M1079.09 148.098S1042.1 259.214 936.592 261.16c0 0 6.424 45.926 71.828 25.687 0 0-19.463 18.877 5.07 28.217 24.33 9.536 34.84-53.125 31.92-60.715 0 0-4.09 87.181 60.74 96.716l-3.7-29.968s36.01 52.153 65.02 17.709c23.55-27.828-31.15-27.634-61.32-91.852-21.22-45.147-27.06-98.856-27.06-98.856z" fill="url(#paint54_linear)"/><path d="M951.971 117.351s-1.752 79.591-54.896 78.424c-53.144-1.168-37.766-72.197 0-59.937 0 0 18.104 5.643 18.688 20.627-.195.195 19.272 5.449 36.208-39.114z" fill="url(#paint55_linear)"/><path d="M1195.11 84.853s14.02 22.768 21.61 65.385c0 .195 26.28-60.131-21.61-65.385z" fill="url(#paint56_linear)"/><path d="M1218.27 76.485s22 8.562 19.08 59.547c0 0 33.87-57.017-19.08-59.547z" fill="url(#paint57_linear)"/><path d="M1044.05 302.61s-13.63 73.948 30.76 84.067c0 0-17.33-22.379 6.81-25.298-.2 0-36.79-16.735-37.57-58.769z" fill="url(#paint58_linear)"/><path d="M1526.63 404.97s-33.1-7.784-45.56-53.904c-14.21-52.542 8.96-143.031 45.56-156.264 0 0-83.9 4.67-109.99 75.699l20.25 5.644s-68.72 80.369-10.13 129.019c50.81 41.839 99.87-.194 99.87-.194z" fill="url(#paint59_linear)"/><path d="M1540.64 171.644s-138.6 8.173-160.79-113.646c-22.19-121.82-106.1-63.05-106.1-63.05s53.73-85.625 122.06-23.158c60.54 55.656 13.82 151.788 144.83 199.854z" fill="url(#paint60_linear)"/><path d="M1483.02 182.542s-80.01 23.936-94.22 83.872c0 0-27.64-10.119-18.3-40.671 0 0-32.51 2.919-34.65-27.828-2.33-34.833 39.52-30.357 39.52-30.357s-18.3-29.385 2.92-49.04c.2 0 24.92 62.078 104.73 64.024z" fill="url(#paint61_linear)"/><path d="M1381.41 289.183c1.75-1.363-27.26 55.071-4.87 103.138 0-.195-58.4-54.488 4.87-103.138z" fill="url(#paint62_linear)"/><path d="M1365.25 273.809s-32.51 18.098-49.84 66.748c-.19.195-20.44-60.715 49.84-66.748z" fill="url(#paint63_linear)"/><path d="M1352.01 260.771s-34.65-.389-58.2 13.038c0 0 13.23-41.644 58.2-13.038z" fill="url(#paint64_linear)"/><path d="M1365.25 99.837s12.85-86.597-47.5-96.716c-46.53-7.784-79.04 48.066-44 75.504 31.54 24.909 60.55-7.2 49.26-31.33 0 .194 20.05-13.428 42.24 52.542z" fill="url(#paint65_linear)"/><path d="M1475.04 87.772s36.99-111.117 142.5-113.063c0 0-6.43-45.926-71.84-25.687 0 0 19.47-18.876-5.06-28.217-24.33-9.536-34.84 53.126-31.92 60.715 0 0 4.09-87.181-60.74-96.716l3.7 29.968s-36.01-52.153-65.02-17.708c-23.55 27.827 31.15 27.633 61.32 91.85 21.22 45.148 27.06 98.858 27.06 98.858z" fill="url(#paint66_linear)"/><path d="M1359.02 151.017s-14.02-22.769-21.61-65.386c0-.195-26.28 60.131 21.61 65.386z" fill="url(#paint67_linear)"/><path d="M1335.85 159.384s-21.99-8.562-19.07-59.547c0 0-33.88 57.018 19.07 59.547z" fill="url(#paint68_linear)"/><path d="M1120.75 457.706s13.62-73.948-30.76-84.067c0 0 17.32 22.379-6.81 25.298 0 .195 36.79 16.93 37.57 58.769z" fill="url(#paint69_linear)"/><path d="M344.416 470.745s86.821.972 85.069 83.483c0 0 80.203-43.785 58.4-121.43l-15.962 26.66s7.786-49.818-32.899-69.083c-40.685-19.266-49.056 31.136-25.891 43.59 0 0-53.922-25.493-68.717 36.78z" fill="url(#paint70_linear)"/><path d="M388.995 390.569s-7.592-15.373-28.811-15.373c-21.413 0-3.309-.584-3.309-.584l32.12 15.957z" fill="url(#paint71_linear)"/><path d="M892.597 473.664s4.672-29.385 48.083-53.321c43.411-23.936 17.325-62.856-9.539-51.374 0 0-4.672-37.947 32.899-37.947 37.57 0 31.731 44.369 31.731 44.369s11.489-12.066 30.759-5.838c0 0-7.2 29.384-41.661 32.887l12.459 7.006s-12.069 21.6-50.808 29.19c-38.739 7.394-51.392 28.995-53.923 35.028z" fill="url(#paint72_linear)"/><path d="M415.08 371.109c11.074 0 20.051-8.974 20.051-20.043 0-11.07-8.977-20.044-20.051-20.044-11.074 0-20.051 8.974-20.051 20.044 0 11.069 8.977 20.043 20.051 20.043z" fill="url(#paint73_linear)"/><path d="M1257.4 542.357c-3.5 1.752 22.39-54.099-21.02-84.651l42.24 9.925s-2.53-59.548-50.42-80.954c0 0 23.17-12.065 43.41 8.563 0 0-31.34-96.327 13.44-106.252 0 0 4.28 85.235 27.64 103.138l15.96-25.103c0 .194 60.54 111.7-71.25 175.334z" fill="url(#paint74_linear)"/><path d="M1248.45 436.106s-58.6-60.326-90.52-36.196c-31.93 24.131 90.52 36.196 90.52 36.196z" fill="url(#paint75_linear)"/><path d="M1245.33 359.433s-28.81-47.871-41.07-39.698c-12.07 8.173 18.88 36.779 41.07 39.698z" fill="url(#paint76_linear)"/><path d="M-74.117 303.972c-.974-3.502 30.368-64.607 130.426-39.893l-25.696 28.217s33.094 80.175 121.667 78.424c0 0-185.128 89.127-226.397-66.748z" fill="url(#paint77_linear)"/></g><defs><linearGradient id="paint0_linear" x1="-118.476" y1="-138.668" x2="1551.49" y2="933.469" gradientUnits="userSpaceOnUse"><stop offset=".003" stop-color="#F0F0F0"/><stop offset=".492" stop-color="#fff"/><stop offset="1" stop-color="#E3E3E2"/></linearGradient><linearGradient id="paint1_linear" x1="-173.402" y1="-53.115" x2="1496.56" y2="1019.02" gradientUnits="userSpaceOnUse"><stop offset=".003" stop-color="#F0F0F0"/><stop offset=".492" stop-color="#fff"/><stop offset="1" stop-color="#E3E3E2"/></linearGradient><linearGradient id="paint2_linear" x1="-91.688" y1="-180.395" x2="1578.28" y2="891.741" gradientUnits="userSpaceOnUse"><stop offset=".003" stop-color="#F0F0F0"/><stop offset=".492" stop-color="#fff"/><stop offset="1" stop-color="#E3E3E2"/></linearGradient><linearGradient id="paint3_linear" x1="-150.638" y1="-88.572" x2="1519.33" y2="983.564" gradientUnits="userSpaceOnUse"><stop offset=".003" stop-color="#F0F0F0"/><stop offset=".492" stop-color="#fff"/><stop offset="1" stop-color="#E3E3E2"/></linearGradient><linearGradient id="paint4_linear" x1="-65.308" y1="-221.483" x2="1604.66" y2="850.656" gradientUnits="userSpaceOnUse"><stop offset=".003" stop-color="#F0F0F0"/><stop offset=".492" stop-color="#fff"/><stop offset="1" stop-color="#E3E3E2"/></linearGradient><linearGradient id="paint5_linear" x1="-94" y1="-176.793" x2="1575.97" y2="895.346" gradientUnits="userSpaceOnUse"><stop offset=".003" stop-color="#F0F0F0"/><stop offset=".492" stop-color="#fff"/><stop offset="1" stop-color="#E3E3E2"/></linearGradient><linearGradient id="paint6_linear" x1="-157.999" y1="-77.107" x2="1511.97" y2="995.031" gradientUnits="userSpaceOnUse"><stop offset=".003" stop-color="#F0F0F0"/><stop offset=".492" stop-color="#fff"/><stop offset="1" stop-color="#E3E3E2"/></linearGradient><linearGradient id="paint7_linear" x1="-206.972" y1="-.827" x2="1463" y2="1071.31" gradientUnits="userSpaceOnUse"><stop offset=".003" stop-color="#F0F0F0"/><stop offset=".492" stop-color="#fff"/><stop offset="1" stop-color="#E3E3E2"/></linearGradient><linearGradient id="paint8_linear" x1="-188.504" y1="-29.593" x2="1481.46" y2="1042.54" gradientUnits="userSpaceOnUse"><stop offset=".003" stop-color="#F0F0F0"/><stop offset=".492" stop-color="#fff"/><stop offset="1" stop-color="#E3E3E2"/></linearGradient><linearGradient id="paint9_linear" x1="-163.997" y1="-67.764" x2="1505.97" y2="1004.37" gradientUnits="userSpaceOnUse"><stop offset=".003" stop-color="#F0F0F0"/><stop offset=".492" stop-color="#fff"/><stop offset="1" stop-color="#E3E3E2"/></linearGradient><linearGradient id="paint10_linear" x1="-87.749" y1="-186.529" x2="1582.21" y2="885.606" gradientUnits="userSpaceOnUse"><stop offset=".003" stop-color="#F0F0F0"/><stop offset=".492" stop-color="#fff"/><stop offset="1" stop-color="#E3E3E2"/></linearGradient><linearGradient id="paint11_linear" x1="-35.434" y1="-268.018" x2="1634.53" y2="804.121" gradientUnits="userSpaceOnUse"><stop offset=".003" stop-color="#F0F0F0"/><stop offset=".492" stop-color="#fff"/><stop offset="1" stop-color="#E3E3E2"/></linearGradient><linearGradient id="paint12_linear" x1="-131.537" y1="-118.325" x2="1538.43" y2="953.814" gradientUnits="userSpaceOnUse"><stop offset=".003" stop-color="#F0F0F0"/><stop offset=".492" stop-color="#fff"/><stop offset="1" stop-color="#E3E3E2"/></linearGradient><linearGradient id="paint13_linear" x1="-211.005" y1="5.456" x2="1458.96" y2="1077.59" gradientUnits="userSpaceOnUse"><stop offset=".003" stop-color="#F0F0F0"/><stop offset=".492" stop-color="#fff"/><stop offset="1" stop-color="#E3E3E2"/></linearGradient><linearGradient id="paint14_linear" x1="-212.231" y1="7.365" x2="1457.74" y2="1079.5" gradientUnits="userSpaceOnUse"><stop offset=".003" stop-color="#F0F0F0"/><stop offset=".492" stop-color="#fff"/><stop offset="1" stop-color="#E3E3E2"/></linearGradient><linearGradient id="paint15_linear" x1="-109.407" y1="-152.797" x2="1560.57" y2="919.344" gradientUnits="userSpaceOnUse"><stop offset=".003" stop-color="#F0F0F0"/><stop offset=".492" stop-color="#fff"/><stop offset="1" stop-color="#E3E3E2"/></linearGradient><linearGradient id="paint16_linear" x1="-97.317" y1="-171.625" x2="1572.65" y2="900.517" gradientUnits="userSpaceOnUse"><stop offset=".003" stop-color="#F0F0F0"/><stop offset=".492" stop-color="#fff"/><stop offset="1" stop-color="#E3E3E2"/></linearGradient><linearGradient id="paint17_linear" x1="-257.195" y1="77.399" x2="1412.77" y2="1149.54" gradientUnits="userSpaceOnUse"><stop offset=".003" stop-color="#F0F0F0"/><stop offset=".492" stop-color="#fff"/><stop offset="1" stop-color="#E3E3E2"/></linearGradient><linearGradient id="paint18_linear" x1="-61.453" y1="-227.489" x2="1608.51" y2="844.648" gradientUnits="userSpaceOnUse"><stop offset=".003" stop-color="#F0F0F0"/><stop offset=".492" stop-color="#fff"/><stop offset="1" stop-color="#E3E3E2"/></linearGradient><linearGradient id="paint19_linear" x1="-23.598" y1="-286.45" x2="1646.37" y2="785.688" gradientUnits="userSpaceOnUse"><stop offset=".003" stop-color="#F0F0F0"/><stop offset=".492" stop-color="#fff"/><stop offset="1" stop-color="#E3E3E2"/></linearGradient><linearGradient id="paint20_linear" x1="-6.526" y1="-313.041" x2="1663.44" y2="759.095" gradientUnits="userSpaceOnUse"><stop offset=".003" stop-color="#F0F0F0"/><stop offset=".492" stop-color="#fff"/><stop offset="1" stop-color="#E3E3E2"/></linearGradient><linearGradient id="paint21_linear" x1="-88.245" y1="-185.765" x2="1581.72" y2="886.37" gradientUnits="userSpaceOnUse"><stop offset=".003" stop-color="#F0F0F0"/><stop offset=".492" stop-color="#fff"/><stop offset="1" stop-color="#E3E3E2"/></linearGradient><linearGradient id="paint22_linear" x1="-29.291" y1="-277.585" x2="1640.68" y2="794.553" gradientUnits="userSpaceOnUse"><stop offset=".003" stop-color="#F0F0F0"/><stop offset=".492" stop-color="#fff"/><stop offset="1" stop-color="#E3E3E2"/></linearGradient><linearGradient id="paint23_linear" x1="-102.982" y1="-162.802" x2="1566.99" y2="909.338" gradientUnits="userSpaceOnUse"><stop offset=".003" stop-color="#F0F0F0"/><stop offset=".492" stop-color="#fff"/><stop offset="1" stop-color="#E3E3E2"/></linearGradient><linearGradient id="paint24_linear" x1="-114.621" y1="-144.673" x2="1555.35" y2="927.465" gradientUnits="userSpaceOnUse"><stop offset=".003" stop-color="#F0F0F0"/><stop offset=".492" stop-color="#fff"/><stop offset="1" stop-color="#E3E3E2"/></linearGradient><linearGradient id="paint25_linear" x1="-85.93" y1="-189.364" x2="1584.04" y2="882.774" gradientUnits="userSpaceOnUse"><stop offset=".003" stop-color="#F0F0F0"/><stop offset=".492" stop-color="#fff"/><stop offset="1" stop-color="#E3E3E2"/></linearGradient><linearGradient id="paint26_linear" x1="-117.773" y1="-139.756" x2="1552.19" y2="932.38" gradientUnits="userSpaceOnUse"><stop offset=".003" stop-color="#F0F0F0"/><stop offset=".492" stop-color="#fff"/><stop offset="1" stop-color="#E3E3E2"/></linearGradient><linearGradient id="paint27_linear" x1="-108.258" y1="-154.579" x2="1561.71" y2="917.561" gradientUnits="userSpaceOnUse"><stop offset=".003" stop-color="#F0F0F0"/><stop offset=".492" stop-color="#fff"/><stop offset="1" stop-color="#E3E3E2"/></linearGradient><linearGradient id="paint28_linear" x1="-21.929" y1="-289.05" x2="1648.04" y2="783.088" gradientUnits="userSpaceOnUse"><stop offset=".003" stop-color="#F0F0F0"/><stop offset=".492" stop-color="#fff"/><stop offset="1" stop-color="#E3E3E2"/></linearGradient><linearGradient id="paint29_linear" x1="27.043" y1="-365.33" x2="1697.01" y2="706.809" gradientUnits="userSpaceOnUse"><stop offset=".003" stop-color="#F0F0F0"/><stop offset=".492" stop-color="#fff"/><stop offset="1" stop-color="#E3E3E2"/></linearGradient><linearGradient id="paint30_linear" x1="8.574" y1="-336.565" x2="1678.54" y2="735.57" gradientUnits="userSpaceOnUse"><stop offset=".003" stop-color="#F0F0F0"/><stop offset=".492" stop-color="#fff"/><stop offset="1" stop-color="#E3E3E2"/></linearGradient><linearGradient id="paint31_linear" x1="-15.931" y1="-298.392" x2="1654.04" y2="773.748" gradientUnits="userSpaceOnUse"><stop offset=".003" stop-color="#F0F0F0"/><stop offset=".492" stop-color="#fff"/><stop offset="1" stop-color="#E3E3E2"/></linearGradient><linearGradient id="paint32_linear" x1="-92.179" y1="-179.628" x2="1577.78" y2="892.507" gradientUnits="userSpaceOnUse"><stop offset=".003" stop-color="#F0F0F0"/><stop offset=".492" stop-color="#fff"/><stop offset="1" stop-color="#E3E3E2"/></linearGradient><linearGradient id="paint33_linear" x1="-161.489" y1="-71.67" x2="1508.47" y2="1000.47" gradientUnits="userSpaceOnUse"><stop offset=".003" stop-color="#F0F0F0"/><stop offset=".492" stop-color="#fff"/><stop offset="1" stop-color="#E3E3E2"/></linearGradient><linearGradient id="paint34_linear" x1="-157.618" y1="-77.703" x2="1512.35" y2="994.437" gradientUnits="userSpaceOnUse"><stop offset=".003" stop-color="#F0F0F0"/><stop offset=".492" stop-color="#fff"/><stop offset="1" stop-color="#E3E3E2"/></linearGradient><linearGradient id="paint35_linear" x1="-144.495" y1="-98.139" x2="1525.47" y2="973.996" gradientUnits="userSpaceOnUse"><stop offset=".003" stop-color="#F0F0F0"/><stop offset=".492" stop-color="#fff"/><stop offset="1" stop-color="#E3E3E2"/></linearGradient><linearGradient id="paint36_linear" x1="-48.393" y1="-247.832" x2="1621.58" y2="824.308" gradientUnits="userSpaceOnUse"><stop offset=".003" stop-color="#F0F0F0"/><stop offset=".492" stop-color="#fff"/><stop offset="1" stop-color="#E3E3E2"/></linearGradient><linearGradient id="paint37_linear" x1="31.077" y1="-371.613" x2="1701.04" y2="700.525" gradientUnits="userSpaceOnUse"><stop offset=".003" stop-color="#F0F0F0"/><stop offset=".492" stop-color="#fff"/><stop offset="1" stop-color="#E3E3E2"/></linearGradient><linearGradient id="paint38_linear" x1="32.3" y1="-373.524" x2="1702.27" y2="698.615" gradientUnits="userSpaceOnUse"><stop offset=".003" stop-color="#F0F0F0"/><stop offset=".492" stop-color="#fff"/><stop offset="1" stop-color="#E3E3E2"/></linearGradient><linearGradient id="paint39_linear" x1="-70.521" y1="-213.36" x2="1599.45" y2="858.776" gradientUnits="userSpaceOnUse"><stop offset=".003" stop-color="#F0F0F0"/><stop offset=".492" stop-color="#fff"/><stop offset="1" stop-color="#E3E3E2"/></linearGradient><linearGradient id="paint40_linear" x1="-82.609" y1="-194.53" x2="1587.35" y2="877.603" gradientUnits="userSpaceOnUse"><stop offset=".003" stop-color="#F0F0F0"/><stop offset=".492" stop-color="#fff"/><stop offset="1" stop-color="#E3E3E2"/></linearGradient><linearGradient id="paint41_linear" x1="143.453" y1="-546.655" x2="1813.42" y2="525.484" gradientUnits="userSpaceOnUse"><stop offset=".003" stop-color="#F0F0F0"/><stop offset=".492" stop-color="#fff"/><stop offset="1" stop-color="#E3E3E2"/></linearGradient><linearGradient id="paint42_linear" x1="105.6" y1="-487.694" x2="1775.57" y2="584.447" gradientUnits="userSpaceOnUse"><stop offset=".003" stop-color="#F0F0F0"/><stop offset=".492" stop-color="#fff"/><stop offset="1" stop-color="#E3E3E2"/></linearGradient><linearGradient id="paint43_linear" x1="88.528" y1="-461.101" x2="1758.5" y2="611.037" gradientUnits="userSpaceOnUse"><stop offset=".003" stop-color="#F0F0F0"/><stop offset=".492" stop-color="#fff"/><stop offset="1" stop-color="#E3E3E2"/></linearGradient><linearGradient id="paint44_linear" x1="111.296" y1="-496.557" x2="1781.26" y2="575.579" gradientUnits="userSpaceOnUse"><stop offset=".003" stop-color="#F0F0F0"/><stop offset=".492" stop-color="#fff"/><stop offset="1" stop-color="#E3E3E2"/></linearGradient><linearGradient id="paint45_linear" x1="196.622" y1="-629.47" x2="1866.59" y2="442.67" gradientUnits="userSpaceOnUse"><stop offset=".003" stop-color="#F0F0F0"/><stop offset=".492" stop-color="#fff"/><stop offset="1" stop-color="#E3E3E2"/></linearGradient><linearGradient id="paint46_linear" x1="167.932" y1="-584.779" x2="1837.9" y2="487.357" gradientUnits="userSpaceOnUse"><stop offset=".003" stop-color="#F0F0F0"/><stop offset=".492" stop-color="#fff"/><stop offset="1" stop-color="#E3E3E2"/></linearGradient><linearGradient id="paint47_linear" x1="103.933" y1="-485.093" x2="1773.9" y2="587.044" gradientUnits="userSpaceOnUse"><stop offset=".003" stop-color="#F0F0F0"/><stop offset=".492" stop-color="#fff"/><stop offset="1" stop-color="#E3E3E2"/></linearGradient><linearGradient id="paint48_linear" x1="54.96" y1="-408.812" x2="1724.93" y2="663.325" gradientUnits="userSpaceOnUse"><stop offset=".003" stop-color="#F0F0F0"/><stop offset=".492" stop-color="#fff"/><stop offset="1" stop-color="#E3E3E2"/></linearGradient><linearGradient id="paint49_linear" x1="73.428" y1="-437.578" x2="1743.39" y2="634.558" gradientUnits="userSpaceOnUse"><stop offset=".003" stop-color="#F0F0F0"/><stop offset=".492" stop-color="#fff"/><stop offset="1" stop-color="#E3E3E2"/></linearGradient><linearGradient id="paint50_linear" x1="97.934" y1="-475.75" x2="1767.9" y2="596.39" gradientUnits="userSpaceOnUse"><stop offset=".003" stop-color="#F0F0F0"/><stop offset=".492" stop-color="#fff"/><stop offset="1" stop-color="#E3E3E2"/></linearGradient><linearGradient id="paint51_linear" x1="174.182" y1="-594.515" x2="1844.15" y2="477.62" gradientUnits="userSpaceOnUse"><stop offset=".003" stop-color="#F0F0F0"/><stop offset=".492" stop-color="#fff"/><stop offset="1" stop-color="#E3E3E2"/></linearGradient><linearGradient id="paint52_linear" x1="226.502" y1="-676.002" x2="1896.47" y2="396.133" gradientUnits="userSpaceOnUse"><stop offset=".003" stop-color="#F0F0F0"/><stop offset=".492" stop-color="#fff"/><stop offset="1" stop-color="#E3E3E2"/></linearGradient><linearGradient id="paint53_linear" x1="130.393" y1="-526.311" x2="1800.36" y2="545.829" gradientUnits="userSpaceOnUse"><stop offset=".003" stop-color="#F0F0F0"/><stop offset=".492" stop-color="#fff"/><stop offset="1" stop-color="#E3E3E2"/></linearGradient><linearGradient id="paint54_linear" x1="50.925" y1="-402.53" x2="1720.89" y2="669.608" gradientUnits="userSpaceOnUse"><stop offset=".003" stop-color="#F0F0F0"/><stop offset=".492" stop-color="#fff"/><stop offset="1" stop-color="#E3E3E2"/></linearGradient><linearGradient id="paint55_linear" x1="49.702" y1="-400.62" x2="1719.67" y2="671.518" gradientUnits="userSpaceOnUse"><stop offset=".003" stop-color="#F0F0F0"/><stop offset=".492" stop-color="#fff"/><stop offset="1" stop-color="#E3E3E2"/></linearGradient><linearGradient id="paint56_linear" x1="152.526" y1="-560.781" x2="1822.49" y2="511.356" gradientUnits="userSpaceOnUse"><stop offset=".003" stop-color="#F0F0F0"/><stop offset=".492" stop-color="#fff"/><stop offset="1" stop-color="#E3E3E2"/></linearGradient><linearGradient id="paint57_linear" x1="164.612" y1="-579.614" x2="1834.58" y2="492.522" gradientUnits="userSpaceOnUse"><stop offset=".003" stop-color="#F0F0F0"/><stop offset=".492" stop-color="#fff"/><stop offset="1" stop-color="#E3E3E2"/></linearGradient><linearGradient id="paint58_linear" x1="4.733" y1="-330.587" x2="1674.7" y2="741.554" gradientUnits="userSpaceOnUse"><stop offset=".003" stop-color="#F0F0F0"/><stop offset=".492" stop-color="#fff"/><stop offset="1" stop-color="#E3E3E2"/></linearGradient><linearGradient id="paint59_linear" x1="147.311" y1="-552.659" x2="1817.28" y2="519.479" gradientUnits="userSpaceOnUse"><stop offset=".003" stop-color="#F0F0F0"/><stop offset=".492" stop-color="#fff"/><stop offset="1" stop-color="#E3E3E2"/></linearGradient><linearGradient id="paint60_linear" x1="240.002" y1="-697.036" x2="1909.97" y2="375.102" gradientUnits="userSpaceOnUse"><stop offset=".003" stop-color="#F0F0F0"/><stop offset=".492" stop-color="#fff"/><stop offset="1" stop-color="#E3E3E2"/></linearGradient><linearGradient id="paint61_linear" x1="169.76" y1="-587.61" x2="1839.72" y2="484.522" gradientUnits="userSpaceOnUse"><stop offset=".003" stop-color="#F0F0F0"/><stop offset=".492" stop-color="#fff"/><stop offset="1" stop-color="#E3E3E2"/></linearGradient><linearGradient id="paint62_linear" x1="100.443" y1="-479.656" x2="1770.41" y2="592.479" gradientUnits="userSpaceOnUse"><stop offset=".003" stop-color="#F0F0F0"/><stop offset=".492" stop-color="#fff"/><stop offset="1" stop-color="#E3E3E2"/></linearGradient><linearGradient id="paint63_linear" x1="104.314" y1="-485.69" x2="1774.28" y2="586.448" gradientUnits="userSpaceOnUse"><stop offset=".003" stop-color="#F0F0F0"/><stop offset=".492" stop-color="#fff"/><stop offset="1" stop-color="#E3E3E2"/></linearGradient><linearGradient id="paint64_linear" x1="117.436" y1="-506.127" x2="1787.4" y2="566.008" gradientUnits="userSpaceOnUse"><stop offset=".003" stop-color="#F0F0F0"/><stop offset=".492" stop-color="#fff"/><stop offset="1" stop-color="#E3E3E2"/></linearGradient><linearGradient id="paint65_linear" x1="213.539" y1="-655.818" x2="1883.51" y2="416.323" gradientUnits="userSpaceOnUse"><stop offset=".003" stop-color="#F0F0F0"/><stop offset=".492" stop-color="#fff"/><stop offset="1" stop-color="#E3E3E2"/></linearGradient><linearGradient id="paint66_linear" x1="293.007" y1="-779.599" x2="1962.97" y2="292.539" gradientUnits="userSpaceOnUse"><stop offset=".003" stop-color="#F0F0F0"/><stop offset=".492" stop-color="#fff"/><stop offset="1" stop-color="#E3E3E2"/></linearGradient><linearGradient id="paint67_linear" x1="191.412" y1="-621.346" x2="1861.38" y2="450.791" gradientUnits="userSpaceOnUse"><stop offset=".003" stop-color="#F0F0F0"/><stop offset=".492" stop-color="#fff"/><stop offset="1" stop-color="#E3E3E2"/></linearGradient><linearGradient id="paint68_linear" x1="179.324" y1="-602.515" x2="1849.29" y2="469.618" gradientUnits="userSpaceOnUse"><stop offset=".003" stop-color="#F0F0F0"/><stop offset=".492" stop-color="#fff"/><stop offset="1" stop-color="#E3E3E2"/></linearGradient><linearGradient id="paint69_linear" x1="-12.958" y1="-303.028" x2="1657.01" y2="769.109" gradientUnits="userSpaceOnUse"><stop offset=".003" stop-color="#F0F0F0"/><stop offset=".492" stop-color="#fff"/><stop offset="1" stop-color="#E3E3E2"/></linearGradient><linearGradient id="paint70_linear" x1="-234.905" y1="42.681" x2="1435.07" y2="1114.82" gradientUnits="userSpaceOnUse"><stop offset=".003" stop-color="#F0F0F0"/><stop offset=".492" stop-color="#fff"/><stop offset="1" stop-color="#E3E3E2"/></linearGradient><linearGradient id="paint71_linear" x1="-212.47" y1="7.733" x2="1457.5" y2="1079.87" gradientUnits="userSpaceOnUse"><stop offset=".003" stop-color="#F0F0F0"/><stop offset=".492" stop-color="#fff"/><stop offset="1" stop-color="#E3E3E2"/></linearGradient><linearGradient id="paint72_linear" x1="-57.56" y1="-233.549" x2="1612.4" y2="838.587" gradientUnits="userSpaceOnUse"><stop offset=".003" stop-color="#F0F0F0"/><stop offset=".492" stop-color="#fff"/><stop offset="1" stop-color="#E3E3E2"/></linearGradient><linearGradient id="paint73_linear" x1="-185.473" y1="-34.316" x2="1484.49" y2="1037.82" gradientUnits="userSpaceOnUse"><stop offset=".003" stop-color="#F0F0F0"/><stop offset=".492" stop-color="#fff"/><stop offset="1" stop-color="#E3E3E2"/></linearGradient><linearGradient id="paint74_linear" x1="34.793" y1="-377.403" x2="1704.76" y2="694.735" gradientUnits="userSpaceOnUse"><stop offset=".003" stop-color="#F0F0F0"/><stop offset=".492" stop-color="#fff"/><stop offset="1" stop-color="#E3E3E2"/></linearGradient><linearGradient id="paint75_linear" x1="11.753" y1="-341.515" x2="1681.72" y2="730.621" gradientUnits="userSpaceOnUse"><stop offset=".003" stop-color="#F0F0F0"/><stop offset=".492" stop-color="#fff"/><stop offset="1" stop-color="#E3E3E2"/></linearGradient><linearGradient id="paint76_linear" x1="55.86" y1="-410.221" x2="1725.83" y2="661.92" gradientUnits="userSpaceOnUse"><stop offset=".003" stop-color="#F0F0F0"/><stop offset=".492" stop-color="#fff"/><stop offset="1" stop-color="#E3E3E2"/></linearGradient><linearGradient id="paint77_linear" x1="-288.347" y1="125.925" x2="1381.62" y2="1198.06" gradientUnits="userSpaceOnUse"><stop offset=".003" stop-color="#F0F0F0"/><stop offset=".492" stop-color="#fff"/><stop offset="1" stop-color="#E3E3E2"/></linearGradient></defs></svg>