<svg width="65" height="41" fill="none" xmlns="http://www.w3.org/2000/svg"><path fill="#34C6BD" d="M0 0h65v41H0z"/><path d="M39.888 26.061H38.78v-7.123c0-.592.018-1.153.055-1.681a7.273 7.273 0 01-.321.3c-.119.105-.661.55-1.627 1.333l-.602-.779 2.646-2.044h.957v9.994zm3.698-3.233v-1.04h3.356v1.04h-3.356zm11.19 3.233h-6.569v-.977l2.632-2.646c.802-.811 1.33-1.39 1.586-1.736a4.47 4.47 0 00.574-1.012c.128-.328.191-.681.191-1.06 0-.533-.161-.954-.485-1.264-.323-.315-.772-.472-1.347-.472-.414 0-.808.069-1.182.205-.37.137-.782.385-1.238.745l-.601-.772c.92-.766 1.923-1.148 3.008-1.148.938 0 1.675.241 2.208.724.533.479.8 1.123.8 1.935 0 .633-.178 1.26-.534 1.88-.355.62-1.02 1.403-1.996 2.351l-2.187 2.14v.054h5.14v1.053zm-37.442-7.279c3.344 0 6.064-2.643 6.064-5.891S20.678 7 17.334 7c-3.345 0-6.066 2.643-6.066 5.891s2.721 5.89 6.066 5.89zm8.302 8.167L24.59 21.79c-.143-.703-.833-1.254-1.57-1.254H11.648c-.737 0-1.427.55-1.57 1.254L9.03 26.95c-.135.667.197 1.509.756 1.917.18.131 4.426 3.203 7.547 3.203 3.121 0 7.368-3.072 7.547-3.203.56-.408.892-1.25.756-1.917z" fill="#fff"/></svg>