<svg width="33" height="35" fill="none" xmlns="http://www.w3.org/2000/svg"><path d="M29.157 24.36c-2.115-1.808-4.26-2.904-6.349-1.098l-1.247 1.091c-.912.793-2.609 4.494-9.167-3.05-6.558-7.536-2.656-8.71-1.742-9.495l1.254-1.093c2.077-1.81 1.293-4.088-.205-6.433l-.904-1.42C9.292.522 7.653-1.015 5.57.792l-1.126.984c-.92.67-3.494 2.85-4.118 6.992-.75 4.969 1.619 10.659 7.048 16.902 5.423 6.246 10.732 9.383 15.76 9.329 4.18-.045 6.704-2.288 7.494-3.103l1.13-.985c2.077-1.806.786-3.644-1.33-5.457l-1.271-1.094z" fill="#312C3A"/></svg>