<svg width="22" height="14" fill="none" xmlns="http://www.w3.org/2000/svg"><path d="M21.089 10.86c-.655-.786-1.426-1.456-2.155-2.168-.658-.642-.7-1.014-.171-1.755.577-.809 1.198-1.586 1.78-2.39.544-.753 1.1-1.503 1.386-2.404.182-.573.021-.826-.566-.926a1.814 1.814 0 00-.31-.018l-3.485-.004c-.43-.007-.667.18-.818.56a21.344 21.344 0 01-.66 1.525c-.555 1.126-1.174 2.213-2.041 3.135-.191.203-.403.46-.723.354-.4-.146-.517-.805-.51-1.028l-.004-4.023c-.078-.575-.205-.831-.776-.943h-3.62c-.484 0-.726.187-.984.49-.15.174-.194.288.112.346.6.114.94.503 1.03 1.105.143.963.133 1.93.05 2.896a2.693 2.693 0 01-.185.828c-.175.414-.458.498-.829.243-.336-.23-.572-.556-.804-.883-.868-1.227-1.56-2.55-2.126-3.94-.163-.402-.445-.646-.87-.652a88.863 88.863 0 00-3.138 0c-.63.012-.817.318-.56.888 1.138 2.534 2.405 4.997 4.06 7.24.85 1.152 1.826 2.17 3.086 2.89 1.428.816 2.966 1.062 4.585.986.758-.035.986-.232 1.021-.988.024-.517.083-1.031.338-1.496.25-.456.63-.543 1.066-.26.219.143.403.323.577.514.427.467.838.948 1.282 1.4.555.565 1.213.899 2.04.83l3.205.001c.516-.034.783-.666.487-1.243-.208-.403-.481-.762-.771-1.11z" fill="#312C3A"/></svg>